<svg width="24" height="24" viewBox="0 0 24 24" fill="none" xmlns="http://www.w3.org/2000/svg">
<g clip-path="url(#clip0_366_405)">
<path d="M23.637 10.55L19.385 2.58798C18.863 1.60898 17.849 1.00098 16.739 1.00098H7.28202C6.17502 1.00098 5.16202 1.60698 4.63802 2.58298L0.365023 10.549C-0.122977 11.46 -0.122977 12.548 0.365023 13.46L4.63602 21.418C5.15902 22.394 6.17202 23 7.28002 23H16.737C17.847 23 18.861 22.392 19.383 21.413L23.635 13.451C24.12 12.543 24.12 11.458 23.635 10.55H23.637ZM11.909 15.42C11.523 15.807 11.013 16 10.502 16C9.99102 16 9.47702 15.805 9.08602 15.415L6.30402 12.719L7.69602 11.282L10.489 13.989L16.298 8.28798L17.702 9.71298L11.909 15.42Z" fill="#FFE01B"/>
</g>
<defs>
<clipPath id="clip0_366_405">
<rect width="24" height="24" fill="white"/>
</clipPath>
</defs>
</svg>
