<svg width="17" height="16" viewBox="0 0 17 16" fill="none" xmlns="http://www.w3.org/2000/svg">
<g clip-path="url(#clip0_752_615)">
<path d="M10.0287 9.52867C9.768 9.78933 9.768 10.2107 10.0287 10.4713L14.224 14.6667H11.1667C10.798 14.6667 10.5 14.9653 10.5 15.3333C10.5 15.7013 10.798 16 11.1667 16H14.5C15.6027 16 16.5 15.1027 16.5 14V10.6667C16.5 10.2987 16.202 10 15.8333 10C15.4647 10 15.1667 10.2987 15.1667 10.6667V13.724L10.9713 9.52867C10.7107 9.268 10.2893 9.268 10.0287 9.52867ZM2.5 0H5.83333C6.202 0 6.5 0.298667 6.5 0.666667C6.5 1.03467 6.202 1.33333 5.83333 1.33333H2.776L6.97133 5.52867C7.232 5.78933 7.232 6.21067 6.97133 6.47133C6.84133 6.60133 6.67067 6.66667 6.5 6.66667C6.32933 6.66667 6.15867 6.60133 6.02867 6.47133L1.83333 2.276V5.33333C1.83333 5.70133 1.53533 6 1.16667 6C0.797999 6 0.5 5.70133 0.5 5.33333V2C0.5 0.897333 1.39733 0 2.5 0Z" fill="#747476"/>
</g>
<defs>
<clipPath id="clip0_752_615">
<rect width="16" height="16" fill="white" transform="matrix(-1 0 0 1 16.5 0)"/>
</clipPath>
</defs>
</svg>
