<svg width="24" height="24" viewBox="0 0 24 24" fill="none" xmlns="http://www.w3.org/2000/svg">
<path d="M21.6774 1.16132H2.32258C1.04516 1.16132 0 2.20648 0 3.4839C0 4.76132 1.04516 5.80648 2.32258 5.80648H21.6774C22.9548 5.80648 24 4.76132 24 3.4839C24 2.20648 22.9548 1.16132 21.6774 1.16132Z" fill="white"/>
<path d="M21.6774 9.67743H2.32258C1.04516 9.67743 0 10.7226 0 12C0 13.2774 1.04516 14.3226 2.32258 14.3226H21.6774C22.9548 14.3226 24 13.2774 24 12C24 10.7226 22.9548 9.67743 21.6774 9.67743Z" fill="white"/>
<path d="M21.6774 18.1936H2.32258C1.04516 18.1936 0 19.2388 0 20.5162C0 21.7936 1.04516 22.8388 2.32258 22.8388H21.6774C22.9548 22.8388 24 21.7936 24 20.5162C24 19.2388 22.9548 18.1936 21.6774 18.1936Z" fill="white"/>
</svg>
