<svg width="24" height="24" viewBox="0 0 24 24" fill="none" xmlns="http://www.w3.org/2000/svg">
<g clip-path="url(#clip0_752_226)">
<path d="M23.3409 9.98L19.8399 3.98C18.9469 2.45 17.2929 1.5 15.5219 1.5H8.45092C6.67992 1.5 5.02492 2.451 4.13192 3.98L0.630916 9.98C-0.275084 11.534 -0.275084 13.465 0.630916 15.019L4.13192 21.019C5.02492 22.549 6.67892 23.499 8.44992 23.499H15.5209C17.2919 23.499 18.9469 22.548 19.8399 21.019L23.3399 15.019C24.2459 13.465 24.2469 11.534 23.3409 9.98ZM15.7069 14.792C16.0979 15.183 16.0979 15.815 15.7069 16.206C15.5119 16.401 15.2559 16.499 14.9999 16.499C14.7439 16.499 14.4879 16.401 14.2929 16.206L11.9999 13.913L9.70692 16.206C9.51192 16.401 9.25592 16.499 8.99992 16.499C8.74392 16.499 8.48792 16.401 8.29292 16.206C7.90192 15.815 7.90192 15.183 8.29292 14.792L10.5859 12.499L8.29292 10.206C7.90192 9.815 7.90192 9.183 8.29292 8.792C8.68392 8.401 9.31592 8.401 9.70692 8.792L11.9999 11.085L14.2929 8.792C14.6839 8.401 15.3159 8.401 15.7069 8.792C16.0979 9.183 16.0979 9.815 15.7069 10.206L13.4139 12.499L15.7069 14.792Z" fill="#E8E8E8"/>
</g>
<defs>
<clipPath id="clip0_752_226">
<rect width="24" height="24" fill="white"/>
</clipPath>
</defs>
</svg>
