<svg width="24" height="24" viewBox="0 0 24 24" fill="none" xmlns="http://www.w3.org/2000/svg">
<g clip-path="url(#clip0_366_412)">
<path d="M11.2398 24C10.9122 23.9988 10.5887 23.9265 10.2918 23.788C9.80682 23.572 9.41731 23.1865 9.19637 22.7037C8.97543 22.221 8.93825 21.6742 9.09181 21.166L10.6528 16H6.97481C6.50621 16.0006 6.044 15.8913 5.62521 15.6811C5.20643 15.4709 4.84271 15.1654 4.56322 14.7893C4.28373 14.4132 4.09624 13.9768 4.01576 13.5152C3.93529 13.0536 3.96407 12.5795 4.09981 12.131L7.12381 2.13099C7.30814 1.51247 7.6881 0.970414 8.20666 0.586179C8.72522 0.201944 9.35442 -0.00374266 9.99981 -1.11458e-05H13.6928C14.1126 0.000339997 14.526 0.102315 14.8978 0.297199C15.2695 0.492082 15.5886 0.77408 15.8277 1.11909C16.0668 1.46411 16.2188 1.86187 16.2707 2.2784C16.3226 2.69494 16.2729 3.11784 16.1258 3.51099L14.4428 7.99999H16.9998C17.5449 7.99995 18.0796 8.1484 18.5467 8.4294C19.0137 8.7104 19.3954 9.11332 19.6506 9.5949C19.9059 10.0765 20.0252 10.6185 19.9956 11.1627C19.9661 11.707 19.7888 12.2329 19.4828 12.684L13.0828 22.984C12.885 23.2938 12.6126 23.5492 12.2907 23.7267C11.9687 23.9041 11.6074 23.9981 11.2398 24Z" fill="#FFE01B"/>
</g>
<defs>
<clipPath id="clip0_366_412">
<rect width="24" height="24" fill="white"/>
</clipPath>
</defs>
</svg>
