<svg width="32" height="20" viewBox="0 0 32 20" fill="none" xmlns="http://www.w3.org/2000/svg">
<path d="M22.6498 5.0951L24.521 7.39081C24.7351 7.65234 24.9213 7.85576 25.0051 7.98168C25.5637 8.56287 25.8802 9.34748 25.8802 10.1611C25.8244 11.1201 25.2285 11.7788 24.67 12.4859L23.3574 14.0842L22.6778 14.9172C22.6498 14.9463 22.6405 14.985 22.6312 15.0238C22.6219 15.0625 22.6312 15.1013 22.6498 15.1303C22.6685 15.1691 22.6871 15.1981 22.7243 15.2175C22.7522 15.2369 22.7895 15.2466 22.8267 15.2466H29.6598C30.7025 15.2466 32.0151 16.1571 31.9406 17.5423C31.9406 18.1719 31.6893 18.7725 31.2611 19.218C30.8235 19.6636 30.237 19.9155 29.6226 19.9155H18.9168C18.2092 19.9155 16.3194 19.993 15.7888 18.3172C15.6771 17.9685 15.6585 17.5907 15.7422 17.2323C15.9005 16.6995 16.1425 16.1958 16.4591 15.7503C16.999 14.9172 17.5762 14.0939 18.1534 13.2899C18.8981 12.2341 19.6522 11.217 20.4063 10.1418C20.4342 10.103 20.4435 10.0643 20.4435 10.0158C20.4435 9.96742 20.4249 9.92867 20.4063 9.88993L17.6879 6.56745C17.6693 6.54808 17.6507 6.5287 17.6227 6.50933C17.5948 6.49965 17.5669 6.48996 17.539 6.48996C17.511 6.48996 17.4831 6.49965 17.4552 6.50933C17.4272 6.51902 17.4086 6.53839 17.39 6.56745C16.6639 7.57485 13.4707 12.0403 12.7912 12.9509C12.1116 13.8517 10.4359 13.9098 9.50493 12.9509L5.25052 8.57256C5.22259 8.5435 5.18535 8.52413 5.14812 8.51444C5.11088 8.50475 5.07364 8.51444 5.0364 8.52413C4.99916 8.5435 4.97124 8.56287 4.95262 8.60162C4.934 8.63068 4.91538 8.66942 4.92469 8.70817V17.1257C4.934 17.7263 4.76643 18.3075 4.43129 18.8015C4.09615 19.2955 3.63068 19.6636 3.08142 19.867C2.72766 19.993 2.35529 20.0317 1.99222 19.9736C1.62915 19.9155 1.27539 19.7798 0.97749 19.5571C0.670279 19.3343 0.428234 19.0437 0.260664 18.7046C0.0930946 18.3656 0 17.9878 0 17.6101V2.47006C0.0279283 1.92762 0.214118 1.40454 0.549257 0.968651C0.884396 0.542445 1.33125 0.232476 1.84327 0.0871786C2.28081 -0.0290595 2.74628 -0.0290595 3.18383 0.0871786C3.62137 0.213103 4.02167 0.44558 4.3475 0.784608L10.892 7.49736C10.9107 7.51673 10.9386 7.5361 10.9572 7.54579C10.9851 7.55548 11.0131 7.55548 11.041 7.55548C11.0689 7.55548 11.0968 7.54579 11.1155 7.52642C11.1434 7.51673 11.162 7.49736 11.1806 7.4683L15.826 0.871786C16.0401 0.600564 16.3101 0.387461 16.6173 0.242163C16.9245 0.0968657 17.2597 0.00968769 17.5948 0.00968769H29.6785C30.0136 0.00968769 30.3394 0.0871809 30.6373 0.222792C30.9352 0.36809 31.2052 0.571504 31.4286 0.823354C31.6427 1.0752 31.8103 1.37549 31.9034 1.70483C31.9965 2.03417 32.0244 2.3732 31.9779 2.71223C31.8941 3.29342 31.6055 3.82617 31.168 4.20394C30.7304 4.58172 30.1719 4.79482 29.5947 4.78513H22.8267C22.7895 4.78513 22.7616 4.79482 22.7336 4.81419C22.7057 4.83357 22.6778 4.86263 22.6685 4.89169C22.6498 4.92075 22.6498 4.9595 22.6498 4.98855C22.6219 5.0273 22.6312 5.06604 22.6498 5.0951Z" fill="#FFE01B"/>
</svg>
