<svg width="24" height="24" viewBox="0 0 24 24" fill="none" xmlns="http://www.w3.org/2000/svg">
<g clip-path="url(#clip0_366_407)">
<path d="M4 11C1.79 11 0 12.79 0 15V20C0 22.21 1.79 24 4 24H8.26C11.06 24 13.74 22.82 15.63 20.75L23.33 12.34C24.28 11.28 24.19 9.63 23.14 8.68C22.63 8.21 21.95 7.97 21.26 8C20.56 8.03 19.92 8.33 19.47 8.83L15.93 12.57C15.96 12.78 15.99 12.99 15.99 13.21C15.99 15.29 14.44 17.09 12.37 17.38L8.12 17.98C7.57 18.06 7.07 17.68 6.99 17.13C6.91 16.58 7.29 16.08 7.84 16L12 15.42C12.94 15.29 13.75 14.61 13.94 13.69C14.24 12.26 13.15 11 11.78 11H4Z" fill="#FFE01B"/>
<path d="M9.8098 4.78999L6.5198 4.23999C6.2198 4.18999 5.9998 3.92999 5.9998 3.61999C5.9998 3.27999 6.2798 2.99999 6.6198 2.99999H9.2598C9.6198 2.99999 9.9498 3.18999 10.1298 3.49999C10.4098 3.97999 11.0198 4.13999 11.4998 3.85999C11.9798 3.57999 12.1398 2.96999 11.8698 2.48999C11.3298 1.56999 10.3398 0.98999 9.2698 0.98999H8.9998C8.9998 0.43999 8.5498 -0.0100098 7.9998 -0.0100098C7.4498 -0.0100098 6.9998 0.43999 6.9998 0.98999H6.6198C5.1698 0.98999 3.9998 2.16999 3.9998 3.60999C3.9998 4.89999 4.9198 5.98999 6.1898 6.19999L9.4798 6.74999C9.7798 6.79999 9.9998 7.05999 9.9998 7.36999C9.9998 7.70999 9.7198 7.98999 9.3798 7.98999H6.7398C6.3798 7.98999 6.0498 7.79999 5.8698 7.48999C5.5898 7.00999 4.9798 6.84999 4.4998 7.12999C4.0198 7.40999 3.8598 8.01999 4.1298 8.49999C4.6698 9.41999 5.6598 9.99999 6.7298 9.99999H6.9998C6.9998 10.55 7.4498 11 7.9998 11C8.5498 11 8.9998 10.55 8.9998 9.99999H9.3798C10.8298 9.99999 11.9998 8.81999 11.9998 7.37999C11.9998 6.08999 11.0798 4.99999 9.8098 4.78999Z" fill="#FFE01B"/>
</g>
<defs>
<clipPath id="clip0_366_407">
<rect width="24" height="24" fill="white"/>
</clipPath>
</defs>
</svg>
