<svg width="24" height="24" viewBox="0 0 24 24" fill="none" xmlns="http://www.w3.org/2000/svg">
<g clip-path="url(#clip0_364_203)">
<path d="M22.4319 11.046C22.0939 10.2 21.6079 9.40999 20.9999 8.71899V5.00399C20.9999 4.38599 20.7219 3.81199 20.2359 3.42799C19.7579 3.05099 19.1469 2.91499 18.5549 3.05399C16.7299 3.48899 15.3609 4.52299 14.6279 5.99999H9.26491C6.68391 5.99999 4.36691 7.15799 2.84591 8.96899C1.64591 8.79399 1.79091 6.99799 2.99891 6.99999C4.30591 6.99499 4.30691 5.00499 2.99891 4.99999C-0.186086 4.98999 -1.13009 9.40599 1.73091 10.709C-0.0280864 14.329 1.50191 18.991 4.99891 20.921V21C5.00091 24.351 9.73891 25.118 10.8279 22H13.1709C14.2599 25.12 18.9979 24.349 18.9999 21V20.908C20.5599 20.005 21.7709 18.608 22.4319 16.954C23.2529 16.779 23.9999 16.106 23.9999 15V13C23.9999 11.894 23.2519 11.221 22.4319 11.046ZM17.9999 13C16.6919 12.994 16.6919 11.006 17.9999 11C19.3079 11.006 19.3079 12.994 17.9999 13ZM6.05191 4.51199C5.48991 -1.07901 13.7919 -1.62001 13.9999 3.99999H9.26591C8.14491 3.99999 7.06591 4.18499 6.05191 4.51199Z" fill="#FFE01B"/>
</g>
<defs>
<clipPath id="clip0_364_203">
<rect width="24" height="24" fill="white"/>
</clipPath>
</defs>
</svg>
