<svg width="16" height="16" viewBox="0 0 16 16" fill="none" xmlns="http://www.w3.org/2000/svg">
<circle cx="8" cy="8" r="8" fill="#9945FF"/>
<path d="M5.06903 3.54604C5.03441 3.57296 4.6421 4.0345 4.19595 4.56912C3.31518 5.63066 3.28826 5.67681 3.48056 5.86527L3.57287 5.96143H7.22672H10.8806L10.9729 5.87296C11.0267 5.82681 11.4152 5.36912 11.8421 4.85373C12.6844 3.83835 12.7113 3.7845 12.519 3.59604L12.4267 3.49989H8.77672C5.91902 3.49989 5.11518 3.51143 5.06903 3.54604ZM11.6921 3.8076H11.2818H10.4613H8.41003H6.35875L5.36518 4.11912H8.51133L11.6536 4.11527L11.6921 3.8076Z" fill="#131315"/>
<path d="M3.48056 6.86533C3.28826 7.05379 3.31518 7.09994 4.19595 8.16148C4.6421 8.6961 5.03441 9.15764 5.06903 9.18071C5.11518 9.21917 5.91902 9.23071 8.77672 9.23071H12.4267L12.519 9.13456C12.7113 8.9461 12.6844 8.89225 11.8421 7.87687C11.4152 7.36148 11.0267 6.90379 10.9729 6.85379L10.8806 6.76917H7.22672H3.57287L3.48056 6.86533ZM11.8421 8.82048L11.6536 8.61533H8.51133L5.36518 8.61148L6.56388 8.82048L7.38439 9.02561L9.43567 8.82048H11.2818H11.8421Z" fill="#131315"/>
<path d="M5.06903 10.0846C5.03441 10.1115 4.6421 10.5731 4.19595 11.1077C3.31518 12.1692 3.28826 12.2154 3.48056 12.4038L3.57287 12.5H7.22672H10.8806L10.9729 12.4115C11.0267 12.3654 11.4152 11.9077 11.8421 11.3923C12.6844 10.3769 12.7113 10.3231 12.519 10.1346L12.4267 10.0385H8.77672C5.91902 10.0385 5.11518 10.05 5.06903 10.0846ZM11.1459 11.2692L10.6344 11.8808L7.48826 11.8846H4.3421L5.12798 12.1924H6.35875L9.02542 11.9872L10.6664 12.1924L11.1459 11.2692Z" fill="#131315"/>
</svg>
