<svg width="17" height="16" viewBox="0 0 17 16" fill="none" xmlns="http://www.w3.org/2000/svg">
<circle cx="8.5" cy="8" r="8" fill="#E8E8E8"/>
<path d="M5.56903 3.54604C5.53441 3.57296 5.1421 4.0345 4.69595 4.56912C3.81518 5.63066 3.78826 5.67681 3.98056 5.86527L4.07287 5.96143H7.72672H11.3806L11.4729 5.87296C11.5267 5.82681 11.9152 5.36912 12.3421 4.85373C13.1844 3.83835 13.2113 3.7845 13.019 3.59604L12.9267 3.49989H9.27672C6.41902 3.49989 5.61518 3.51143 5.56903 3.54604ZM12.1921 3.8076H11.7818H10.9613H8.91003H6.85875L5.86518 4.11912H9.01133L12.1536 4.11527L12.1921 3.8076Z" fill="#131316"/>
<path d="M3.98056 6.86557C3.78826 7.05403 3.81518 7.10019 4.69595 8.16173C5.1421 8.69634 5.53441 9.15788 5.56903 9.18096C5.61518 9.21942 6.41902 9.23096 9.27672 9.23096H12.9267L13.019 9.1348C13.2113 8.94634 13.1844 8.8925 12.3421 7.87711C11.9152 7.36173 11.5267 6.90403 11.4729 6.85403L11.3806 6.76942H7.72672H4.07287L3.98056 6.86557ZM12.3421 8.82073L12.1536 8.61557H9.01133L5.86518 8.61173L7.06388 8.82073L7.88439 9.02585L9.93567 8.82073H11.7818H12.3421Z" fill="#131316"/>
<path d="M5.56903 10.0846C5.53441 10.1115 5.1421 10.5731 4.69595 11.1077C3.81518 12.1692 3.78826 12.2154 3.98056 12.4038L4.07287 12.5H7.72672H11.3806L11.4729 12.4115C11.5267 12.3654 11.9152 11.9077 12.3421 11.3923C13.1844 10.3769 13.2113 10.3231 13.019 10.1346L12.9267 10.0385H9.27672C6.41902 10.0385 5.61518 10.05 5.56903 10.0846ZM11.6459 11.2692L11.1344 11.8808L7.98826 11.8846H4.8421L5.62798 12.1924H6.85875L9.52542 11.9872L11.1664 12.1924L11.6459 11.2692Z" fill="#131316"/>
</svg>
