<svg width="12" height="12" viewBox="0 0 12 12" fill="none" xmlns="http://www.w3.org/2000/svg">
<g clip-path="url(#clip0_772_1406)">
<path d="M10.7631 4.14206L6.9686 0.439558C6.6391 0.109558 6.1651 -0.0519425 5.7046 0.0140575L2.2606 0.485058C1.9871 0.522558 1.7956 0.774557 1.8331 1.04806C1.8706 1.32156 2.1221 1.51256 2.3966 1.47556L5.8411 1.00456C5.9941 0.983557 6.1521 1.03606 6.2666 1.15056L10.0616 4.85306C10.5841 5.37556 10.6351 6.19306 10.2231 6.77656C10.1061 6.54306 9.96161 6.32056 9.7676 6.12656L6.0301 2.42056C5.7011 2.09156 5.2316 1.93306 4.7661 1.99506L1.3216 2.46606C1.0946 2.49706 0.917604 2.67856 0.892604 2.90656L0.510104 6.36456C0.460104 6.82006 0.617104 7.26656 0.942104 7.59106L4.6501 11.2676C5.1221 11.7401 5.7496 11.9996 6.4171 11.9996H6.4256C7.0966 11.9976 7.7256 11.7336 8.1971 11.2561L9.78061 9.65206C10.2441 9.18256 10.4771 8.57256 10.4921 7.95806L10.7806 7.67006C11.7431 6.69506 11.7376 5.11406 10.7646 4.14156L10.7631 4.14206ZM3.0001 5.00006C2.7241 5.00006 2.5001 4.77606 2.5001 4.50006C2.5031 3.84606 3.4971 3.84656 3.5001 4.50006C3.5001 4.77606 3.2761 5.00006 3.0001 5.00006Z" fill="#747476"/>
</g>
<defs>
<clipPath id="clip0_772_1406">
<rect width="12" height="12" fill="white"/>
</clipPath>
</defs>
</svg>
