<svg width="48" height="48" viewBox="0 0 48 48" fill="none" xmlns="http://www.w3.org/2000/svg">
<g clip-path="url(#clip0_766_2)">
<path d="M48.0001 24.5266C48.0001 31.0457 45.3426 36.944 41.0519 41.1974C40.7269 41.5196 39.2702 42.8003 38.8646 43.1136C37.9491 43.8208 36.9799 44.462 35.9642 45.0298C34.2298 45.9993 27.9276 47.2867 21.6529 46.4988C15.6849 45.7495 9.74492 43.0036 7.66492 40.8561C3.57257 36.6313 1.05396 30.873 1.05396 24.5266C1.05396 11.5626 11.5632 1.05322 24.527 1.05322C37.4908 1.05322 48.0001 11.5626 48.0001 24.5266Z" fill="#0A0A0B"/>
<path d="M37.0297 31.0129C37.0138 31.013 36.9978 31.013 36.982 31.013C33.1482 31.013 29.8403 28.8967 28.3089 25.8394C28.5177 25.712 28.7215 25.5731 28.9196 25.4227C32.7336 22.5256 35.321 16.9006 35.321 11.6096C35.321 7.7042 33.9112 4.72992 31.6389 2.7008C27.5658 -0.936376 21.3351 -0.894795 17.309 2.79459C15.2649 4.66784 13.9422 7.32384 13.7538 10.7522C12.8002 10.8953 12.0353 11.9058 12.0698 13.1301C12.144 15.7538 13.7558 16.4526 14.421 16.4825C15.4324 20.0936 17.4873 23.414 20.1319 25.4229C20.3304 25.5737 20.535 25.7129 20.7444 25.8406C19.2127 28.8974 15.9052 31.0131 12.0719 31.0131C12.056 31.0131 12.04 31.0131 12.0242 31.013C9.62587 31.002 7.66467 32.8006 7.66467 35.0546C7.66467 35.2725 7.84125 35.4491 8.05911 35.4491H9.58084C10.11 35.4491 10.5389 35.878 10.5389 36.4071C10.5389 36.9363 10.11 37.3652 9.58084 37.3652H8.05911C7.84125 37.3652 7.66467 37.5418 7.66467 37.7597V40.8563C11.9317 45.2617 17.9095 48.0001 24.5269 48.0001C28.6794 48.0001 32.58 46.9217 35.9641 45.03H32.5749C32.0246 45.03 31.5828 44.5662 31.6188 44.0082C31.6517 43.499 32.0973 43.1138 32.6076 43.1138H38.8645C39.6328 42.5203 40.3633 41.8801 41.0518 41.1977H36.44C35.9297 41.1977 35.4841 40.8125 35.4511 40.3033C35.415 39.7453 35.857 39.2815 36.4072 39.2815H40.9102C41.1747 39.2815 41.3892 39.067 41.3892 38.8025V35.0547C41.3892 32.8006 39.428 31.002 37.0297 31.0129ZM28.7425 45.03H26.8263C26.2972 45.03 25.8683 44.6011 25.8683 44.0719C25.8683 43.5428 26.2972 43.1138 26.8263 43.1138H28.7425C29.2717 43.1138 29.7006 43.5428 29.7006 44.0719C29.7006 44.6011 29.2717 45.03 28.7425 45.03ZM31.6168 41.1976C31.0876 41.1976 30.6587 40.7686 30.6587 40.2395C30.6587 39.7103 31.0876 39.2814 31.6168 39.2814C32.1459 39.2814 32.5749 39.7103 32.5749 40.2395C32.5749 40.7686 32.1459 41.1976 31.6168 41.1976ZM3.83234 25.868H0.958084C0.428934 25.868 0 25.4391 0 24.9099C0 24.3808 0.428934 23.9519 0.958084 23.9519H3.83234C4.36149 23.9519 4.79042 24.3808 4.79042 24.9099C4.79042 25.4391 4.36149 25.868 3.83234 25.868ZM37.3653 27.7849C37.3653 27.2557 36.9363 26.8268 36.4072 26.8268H34.491C33.9619 26.8268 33.5329 27.2557 33.5329 27.7849C33.5329 28.314 33.9619 28.743 34.491 28.743H36.4072C36.9363 28.743 37.3653 28.314 37.3653 27.7849ZM43.1138 23.9524C43.1138 23.4233 42.6848 22.9944 42.1557 22.9944H37.3653C36.8361 22.9944 36.4072 23.4233 36.4072 23.9524C36.4072 24.4816 36.8361 24.9105 37.3653 24.9105H42.1557C42.6848 24.9105 43.1138 24.4816 43.1138 23.9524ZM4.79042 36.4071C4.79042 35.878 4.36149 35.4491 3.83234 35.4491H1.91617C1.38702 35.4491 0.958084 35.878 0.958084 36.4071C0.958084 36.9363 1.38702 37.3652 1.91617 37.3652H3.83234C4.36149 37.3652 4.79042 36.9362 4.79042 36.4071Z" fill="#131316"/>
<path d="M37.0297 31.0129C37.0138 31.013 36.9979 31.013 36.9821 31.013C33.1482 31.013 29.8404 28.8968 28.309 25.8395C28.5141 25.7326 28.6939 25.5923 28.8848 25.449C28.8964 25.4403 28.9081 25.4315 28.9197 25.4227C31.5642 23.4138 33.619 20.0934 34.6304 16.4824C35.2941 16.4542 36.9097 15.757 36.984 13.13C37.0186 11.9046 36.2524 10.8934 35.2976 10.7517C35.0258 5.81052 32.3981 2.4738 28.6501 0.772721C26.0543 -0.405435 22.9597 0.358733 21.2659 2.65162C21.2562 2.66475 21.2465 2.67797 21.2368 2.69119C21.1815 2.76678 21.2367 2.87361 21.3304 2.87361H23.952C24.4812 2.87361 24.9101 3.30254 24.9101 3.83169C24.9101 4.36084 24.4812 4.78978 23.952 4.78978C23.952 4.78978 21.7551 4.78863 20.6419 4.78633C20.2512 4.78556 19.8985 5.02134 19.7518 5.3835C19.0546 7.1046 18.637 9.11849 18.5285 11.4216C18.2325 17.702 20.8861 22.2071 22.8893 24.6804C23.4126 25.3265 24.0883 25.79 24.8257 26.056C22.353 32.2667 17.2226 33.7481 14.3712 34.7013C14.3658 34.7032 14.3604 34.705 14.3551 34.7068C13.9487 34.8443 14.0538 35.4487 14.4828 35.4487H18.2036C18.7328 35.4487 19.1617 35.8777 19.1617 36.4068C19.1617 36.936 18.7328 37.3649 18.2036 37.3649H12.0882C11.9154 37.3649 11.7635 37.4796 11.7169 37.6459C11.1634 39.6236 11.3699 42.1075 11.3856 43.9791C15.1353 46.5176 19.658 48 24.527 48C28.6794 48 32.58 46.9217 35.9641 45.03H32.5749C32.0246 45.03 31.5828 44.5662 31.6189 44.0082C31.6518 43.4989 32.0975 43.1138 32.6077 43.1138H38.8646C39.6329 42.5203 40.3634 41.8801 41.0519 41.1976H36.4401C35.9298 41.1976 35.4842 40.8125 35.4512 40.3033C35.4151 39.7453 35.857 39.2815 36.4072 39.2815H40.9102C41.1747 39.2815 41.3892 39.0669 41.3892 38.8024V35.0547C41.3892 32.8006 39.428 31.002 37.0297 31.0129ZM22.0359 42.1556C22.0359 42.6848 21.607 43.1137 21.0779 43.1137H17.2455C16.7164 43.1137 16.2874 42.6848 16.2874 42.1556C16.2874 41.6265 16.7164 41.1975 17.2455 41.1975H21.0779C21.607 41.1975 22.0359 41.6265 22.0359 42.1556ZM28.7425 45.03H26.8264C26.2972 45.03 25.8683 44.601 25.8683 44.0719C25.8683 43.5427 26.2972 43.1138 26.8264 43.1138H28.7425C29.2717 43.1138 29.7006 43.5427 29.7006 44.0719C29.7006 44.601 29.2717 45.03 28.7425 45.03ZM31.6168 41.1975C31.0876 41.1975 30.6587 40.7686 30.6587 40.2395C30.6587 39.7103 31.0876 39.2814 31.6168 39.2814C32.1459 39.2814 32.5749 39.7103 32.5749 40.2395C32.5749 40.7686 32.1459 41.1975 31.6168 41.1975ZM6.7066 25.868H3.83235C3.3032 25.868 2.87427 25.4391 2.87427 24.9099C2.87427 24.3808 3.3032 23.9518 3.83235 23.9518H6.7066C7.23575 23.9518 7.66469 24.3808 7.66469 24.9099C7.66469 25.4391 7.23575 25.868 6.7066 25.868ZM39.2815 27.7848C39.2815 27.2557 38.8525 26.8268 38.3234 26.8268H36.4072C35.8781 26.8268 35.4491 27.2557 35.4491 27.7848C35.4491 28.314 35.8781 28.7429 36.4072 28.7429H38.3234C38.8525 28.7429 39.2815 28.3139 39.2815 27.7848ZM46.1797 23.9524C46.1797 23.4233 45.7507 22.9943 45.2216 22.9943H40.2395C39.7104 22.9943 39.2815 23.4233 39.2815 23.9524C39.2815 24.4816 39.7104 24.9105 40.2395 24.9105H45.2216C45.7507 24.9105 46.1797 24.4816 46.1797 23.9524ZM5.74852 36.4071C5.74852 35.878 5.31959 35.449 4.79044 35.449H3.83235C3.3032 35.449 2.87427 35.878 2.87427 36.4071C2.87427 36.9363 3.3032 37.3652 3.83235 37.3652H4.79044C5.31959 37.3652 5.74852 36.9362 5.74852 36.4071Z" fill="#747476"/>
<path d="M25.8752 26.2041C25.8752 26.9487 25.2715 27.5524 24.5269 27.5524C23.7823 27.5524 23.1786 26.9487 23.1786 26.2041C23.1786 25.4595 23.7823 24.8558 24.5269 24.8558C25.2715 24.8558 25.8752 25.4595 25.8752 26.2041ZM30.1665 13.0393C30.014 10.0999 27.5875 7.75091 24.6427 7.69161C21.7799 7.63364 19.3285 9.72351 18.9338 12.5521C18.8977 12.8109 18.8794 13.0754 18.8794 13.338C18.8794 14.0827 19.4831 14.6863 20.2277 14.6863C20.9724 14.6863 21.576 14.0826 21.576 13.338C21.576 13.1995 21.5856 13.0604 21.6046 12.9248C21.8106 11.4484 23.0899 10.3576 24.5884 10.3878C26.1266 10.4188 27.3939 11.6449 27.4736 13.1792C27.516 13.9984 27.2296 14.7761 26.6667 15.3688C26.1034 15.9621 25.3435 16.2889 24.5269 16.2889C23.7822 16.2889 23.1786 16.8926 23.1786 17.6372V22.1327C23.1786 22.8774 23.7823 23.481 24.5269 23.481C25.2715 23.481 25.8752 22.8773 25.8752 22.1327V18.8205C26.9152 18.563 27.8754 18.0123 28.6223 17.2256C29.6993 16.091 30.2477 14.6044 30.1665 13.0393Z" fill="#E8E8E8"/>
</g>
<defs>
<clipPath id="clip0_766_2">
<rect width="48" height="48" fill="white"/>
</clipPath>
</defs>
</svg>
