<svg width="24" height="24" viewBox="0 0 24 24" fill="none" xmlns="http://www.w3.org/2000/svg">
<g clip-path="url(#clip0_364_320)">
<g clip-path="url(#clip1_364_320)">
<path d="M21.5262 8.28399L13.9372 0.878993C13.2782 0.218993 12.3302 -0.104007 11.4092 0.027993L4.52121 0.969993C3.97421 1.04499 3.59121 1.54899 3.66621 2.09599C3.74121 2.64299 4.24421 3.02499 4.79321 2.95099L11.6822 2.00899C11.9882 1.96699 12.3042 2.07199 12.5332 2.30099L20.1232 9.70599C21.1682 10.751 21.2702 12.386 20.4462 13.553C20.2122 13.086 19.9232 12.641 19.5352 12.253L12.0602 4.84099C11.4022 4.18299 10.4632 3.86599 9.53221 3.98999L2.64321 4.93199C2.18921 4.99399 1.83521 5.35699 1.78521 5.81299L1.02021 12.729C0.920209 13.64 1.23421 14.533 1.88421 15.182L9.30021 22.535C10.2442 23.48 11.4992 23.999 12.8342 23.999H12.8512C14.1932 23.995 15.4512 23.467 16.3942 22.512L19.5612 19.304C20.4882 18.365 20.9542 17.145 20.9842 15.916L21.5612 15.34C23.4862 13.39 23.4752 10.228 21.5292 8.28299L21.5262 8.28399ZM6.00021 9.99999C5.44821 9.99999 5.00021 9.55199 5.00021 8.99999C5.00621 7.69199 6.99421 7.69299 7.00021 8.99999C7.00021 9.55199 6.55221 9.99999 6.00021 9.99999Z" fill="#FFE01B"/>
</g>
</g>
<defs>
<clipPath id="clip0_364_320">
<rect width="24" height="24" fill="white"/>
</clipPath>
<clipPath id="clip1_364_320">
<rect width="24" height="24" fill="white"/>
</clipPath>
</defs>
</svg>
