<svg width="1994" height="1727" viewBox="0 0 1994 1727" fill="none" xmlns="http://www.w3.org/2000/svg">
<rect width="1993.68" height="1726.37" fill="#0A0A0B"/>
<g clip-path="url(#clip0_2105_65)">
<path d="M1400.69 961.33C1402.49 967.43 1404.28 972.65 1405.54 978C1406.46 981.91 1408.85 983.81 1412.35 985.15C1417.3 987.05 1422.62 988.56 1426.87 991.54C1431.48 994.77 1436.24 998.87 1438.77 1003.72C1443.07 1011.96 1449.55 1017.15 1457.43 1020.87C1489.56 1036.04 1523.58 1041.32 1558.85 1039.71C1569.46 1039.22 1580.07 1038.56 1590.68 1038.23C1592.43 1038.18 1594.22 1039.47 1596.32 1040.26C1585.98 1060.42 1572.47 1076.78 1555.9 1090.66C1539.2 1104.65 1520.44 1115.11 1498.81 1118.1C1482.09 1120.41 1465 1120.44 1448.06 1120.66C1440.5 1120.76 1432.94 1118.72 1425.34 1117.95C1424.09 1117.82 1422.13 1118.84 1421.45 1119.92C1414.95 1130.26 1405.15 1132.85 1394.12 1130.77C1384.22 1128.9 1374.55 1125.81 1364.82 1123.07C1362.58 1122.44 1360.88 1121.84 1359.3 1124.25C1348.38 1140.9 1332.9 1152.27 1315.87 1161.99C1306.21 1167.51 1300.05 1176.1 1296.04 1186.59C1288.32 1206.8 1273.16 1219.13 1252.72 1225.14C1224.14 1233.53 1194.81 1233.84 1165.51 1231.49C1139.47 1229.4 1113.58 1225.51 1087.55 1223.09C1079.07 1222.3 1070.34 1223.18 1061.81 1224.13C1044.62 1226.04 1027.43 1228.15 1010.35 1230.87C988.192 1234.4 965.982 1237.88 944.072 1242.68C912.292 1249.63 880.592 1257.12 849.162 1265.51C815.292 1274.55 782.742 1287.39 751.392 1303.2C724.162 1316.94 696.642 1330.12 669.702 1344.39C656.882 1351.19 645.012 1359.82 632.922 1367.93C628.522 1370.88 624.352 1371.04 619.742 1369.17C607.292 1364.13 595.022 1358.55 582.342 1354.18C559.752 1346.39 537.062 1338.83 514.142 1332.11C492.802 1325.85 471.112 1320.81 449.582 1315.23C448.622 1314.98 447.612 1314.88 446.672 1314.59C436.542 1311.47 436.302 1311.12 435.172 1300.54C434.802 1297.07 434.182 1293.63 433.582 1289.58C426.502 1294.03 424.152 1288.1 420.652 1284.15C406.802 1268.52 398.432 1250.02 393.242 1230.14C389.482 1215.75 387.652 1201.01 392.192 1185.95C378.472 1177.82 377.472 1163.64 376.242 1150C374.982 1136.08 375.352 1122.02 374.192 1108.09C373.632 1101.4 371.682 1094.7 369.452 1088.32C365.972 1078.32 361.842 1068.54 357.762 1058.77C354.272 1050.43 355.942 1042.77 362.792 1037.96C366.452 1035.39 370.192 1035.19 373.772 1038.12C376.332 1040.21 378.832 1042.38 381.282 1044.6C385.602 1048.52 386.662 1048.37 388.962 1042.93C394.232 1030.43 396.242 1017.33 394.892 1003.89C393.652 991.51 396.412 981.56 406.452 972.94C430.872 951.98 457.422 934.45 485.832 919.51C515.752 903.78 545.642 888 575.272 871.75C586.102 865.81 596.092 858.34 606.602 851.77C616.342 845.68 619.672 836.3 621.562 825.63C623.622 814.04 626.372 802.55 629.252 791.12C633.292 775.02 644.412 763.79 656.442 753.4C660.302 750.07 664.632 747.19 669.022 744.56C675.382 740.75 681.862 740.36 688.062 745.2C688.972 745.91 690.052 746.4 691.282 747.13C698.912 736.02 701.512 723.62 699.842 710.61C698.812 702.63 696.112 694.85 693.892 687.05C693.332 685.08 692.182 682.74 690.572 681.71C682.572 676.59 681.892 668 679.852 660.1C678.612 655.28 677.892 650.32 677.042 645.4C675.822 638.35 677.752 633.94 684.642 631.79C696.342 628.12 708.312 625.26 720.182 622.16C729.152 619.81 738.162 617.61 748.442 615.02C748.442 601.98 749.342 589.1 748.202 576.4C746.952 562.58 753.352 554.89 764.962 549.85C765.872 549.45 766.762 548.99 767.662 548.57C775.682 544.82 781.892 540.59 786.562 531.53C797.282 510.73 814.692 494.98 832.872 480.31C855.992 461.66 882.402 448.93 909.842 438.53C924.632 432.92 940.502 430.16 955.872 426.05C958.082 425.46 960.302 424.74 962.352 423.75C991.922 409.36 1022.09 396.44 1053.22 385.75C1075.12 378.23 1097.58 373.09 1120.07 367.71C1144.9 361.78 1169.82 357.3 1195.28 356.16C1211.29 355.44 1227.15 357.18 1242.88 360.48C1253.1 362.62 1262.81 365.53 1271.23 371.96C1282.15 380.29 1282.9 401.73 1272.95 411.3C1260.11 423.65 1244.81 432.04 1229.31 440.43C1203 454.67 1177.07 469.64 1150.98 484.31C1151.05 484.89 1151.13 485.47 1151.2 486.05C1152.69 486.72 1154.14 487.56 1155.69 488.05C1175.3 494.28 1195.01 500.2 1214.5 506.8C1220.22 508.74 1225.2 512.75 1230.73 515.36C1232.44 516.17 1235.31 516.23 1236.9 515.32C1260.87 501.56 1286.35 492.18 1313.53 487C1320.86 485.6 1327.83 482.2 1334.87 479.47C1370.19 465.81 1405.6 452.32 1442.8 444.67C1472.74 438.51 1502.77 432.38 1533.38 430.51C1556.41 429.1 1579.22 430.22 1601.72 436.46C1612.92 439.57 1623.45 443.18 1632.22 451.12C1639.41 457.64 1640.07 480.76 1630.62 488.62C1616.24 500.59 1600.06 508.93 1583.41 516.82C1547.86 533.66 1511.9 549.99 1479.35 572.15C1457.77 586.84 1438.04 604.31 1417.97 621.12C1414.24 624.25 1413.22 630.42 1410.32 634.76C1400.92 648.8 1391.19 662.6 1381.72 676.59C1380.77 678 1380.01 680.32 1380.48 681.8C1385.9 698.82 1383.67 715.47 1377.74 731.72C1371.97 747.52 1372.29 763.31 1375.97 779.32C1378.18 788.95 1384.57 795.13 1392.89 799.72C1394.34 800.52 1395.63 801.69 1397.16 802.21C1399.12 802.88 1401.48 803.87 1403.27 803.36C1416.51 799.59 1430.02 796.99 1443.67 798.91C1468.96 802.46 1493.76 807.8 1517.98 816.65C1542.6 825.64 1562.96 840.56 1582.55 856.97C1590.97 864.02 1598.48 872.26 1605.74 880.54C1608.15 883.29 1609.44 887.82 1609.6 891.6C1609.97 900.5 1606.98 906.45 1596.05 906.38C1586.24 906.32 1576.43 905.48 1566.64 904.76C1544.11 903.11 1521.68 902.99 1499.73 909.29C1492.74 911.29 1485.92 913.91 1479.11 916.48C1477.91 916.93 1477.04 918.5 1476.22 919.69C1466.72 933.36 1454.42 943.29 1439.16 950.31C1429.16 954.91 1418.71 956.65 1408.29 959.09C1405.32 959.79 1402.43 960.82 1400.68 961.34L1400.69 961.33ZM1582.29 1048.97C1578.57 1050.74 1574.83 1052.5 1571.12 1054.29C1567.24 1056.16 1563.42 1058.16 1559.49 1059.91C1556.06 1061.44 1552.52 1062.71 1549.02 1064.1L1548.85 1063.33L1579.31 1046.02C1579.11 1045.45 1578.91 1044.87 1578.71 1044.3C1531.49 1048.47 1485.88 1044.41 1444.12 1018.4C1444.12 1028.51 1444.05 1038.47 1444.23 1048.42C1444.25 1049.42 1445.59 1050.94 1446.63 1051.29C1453.85 1053.75 1461.13 1056.06 1468.45 1058.22C1474.71 1060.07 1481.05 1061.64 1487.35 1063.34C1487.27 1063.76 1487.19 1064.17 1487.11 1064.59C1472.47 1062.41 1457.84 1060.22 1443.25 1058.04C1440 1069.96 1436.6 1082.46 1433.02 1095.62H1478.44C1469.97 1097.65 1461.49 1098.95 1452.96 1099.64C1446.38 1100.17 1439.73 1099.9 1433.12 1100.11C1432.16 1100.14 1430.7 1100.65 1430.35 1101.36C1428.64 1104.86 1427.23 1108.51 1425.35 1112.98C1434.48 1113.5 1442.56 1114.35 1450.64 1114.34C1478.69 1114.32 1506.48 1113.1 1531.7 1098.23C1552.55 1085.94 1568.83 1069.01 1583.05 1049.79C1583.33 1049.35 1583.61 1048.9 1583.89 1048.46C1583.36 1048.63 1582.82 1048.8 1582.29 1048.97ZM369.382 1046.13C365.255 1051.2 365.045 1056.38 368.752 1061.69C369.412 1062.64 370.052 1063.67 370.392 1064.76C375.102 1079.95 380.402 1094.99 384.192 1110.41C386.802 1121.01 387.342 1132.12 388.712 1143.02C390.002 1153.31 394.182 1162.76 396.942 1172.56C399.712 1182.41 406.162 1183.49 413.512 1185.05C429.272 1188.4 445.242 1190.92 460.812 1194.98C498.072 1204.7 535.182 1214.98 572.272 1225.33C588.612 1229.89 604.342 1236.1 618.752 1245.31C623.122 1248.11 628.032 1250.36 633.332 1248.37C639.182 1246.18 645.202 1244.02 650.432 1240.71C660.072 1234.6 668.892 1227.2 678.572 1221.16C704.342 1205.08 731.162 1190.98 759.732 1180.42C796.532 1166.83 831.862 1149.19 870.172 1139.75C881.912 1136.86 893.862 1133.79 905.842 1133.15C928.262 1131.96 950.812 1131.61 973.252 1132.48C1017.12 1134.18 1060.87 1134 1104.47 1128.5C1119.14 1126.65 1134.04 1125.32 1148.29 1121.65C1164.61 1117.45 1180.76 1111.89 1196.2 1105.13C1218.3 1095.46 1237.04 1080.65 1252.86 1062.36C1269.08 1043.61 1276.05 1020.16 1285.74 998.04C1288.72 991.24 1288.08 980.51 1299.95 980.6C1312.01 971.99 1326.06 968.81 1340.25 966.58C1353.68 964.46 1367.28 963.44 1380.81 961.91C1382.43 961.73 1384.61 961.95 1385.55 961.01C1389.8 956.75 1393.69 952.13 1398.19 947.11C1387.47 944.25 1376.4 944.34 1366.24 939.5C1366.98 938.81 1367.11 938.6 1367.21 938.61C1368 938.73 1368.79 938.86 1369.56 939.05C1388.75 943.81 1408.31 947.13 1427.64 941.71C1454.31 934.23 1470.57 915.67 1477.31 889.06C1482.18 869.83 1480.2 850.68 1474.16 831.97C1469.32 816.96 1459.65 806.58 1443.24 805.76C1432.9 805.25 1422.2 805.98 1412.11 808.2C1398.53 811.19 1385.29 815.94 1374.14 825.07C1373.88 824.67 1373.62 824.27 1373.35 823.87C1380 818.42 1386.65 812.97 1393.73 807.18C1371.99 798.33 1367.31 780.14 1368.15 758.93C1367.62 759.03 1367.08 759.12 1366.55 759.22C1364.67 762.4 1362.78 765.57 1360.15 770.01C1360.45 766.84 1360.31 764.96 1360.84 763.31C1365.29 749.6 1370.18 736.02 1374.31 722.22C1377.9 710.24 1378.84 697.95 1375.99 684.38C1361.22 706.43 1356.05 732.31 1340.16 752.47C1339.97 751.53 1340.06 750.71 1340.33 749.96C1343.99 739.9 1347.73 729.87 1351.34 719.79C1357.11 703.67 1364.65 688.54 1374.68 674.56C1385.78 659.08 1396.23 643.13 1407.02 627.43C1409.25 624.18 1409.2 621.2 1407.33 617.72C1400.28 604.57 1393.69 591.16 1386.48 578.09C1368.77 546 1345.89 517.96 1318.8 493.34C1317.33 492.01 1314.19 491.35 1312.26 491.89C1304.77 494 1297.49 496.8 1290.08 499.2C1269.22 505.96 1249.12 514.31 1230.88 526.71C1210.7 540.43 1193.06 556.81 1178.61 576.53C1176.41 579.54 1174.06 581.89 1169.54 581.45C1176.65 568.78 1185.53 558.05 1195.62 548.43C1205.62 538.91 1216.23 530.03 1226.84 520.64C1221.81 518.08 1217.05 514.91 1211.81 513.14C1192.17 506.5 1172.54 499.71 1152.58 494.17C1137.41 489.95 1121.88 486.26 1106.27 484.58C1073.16 481.01 1040.02 482.62 1007.18 488.32C998.542 489.82 990.032 492.18 981.562 494.52C977.512 495.64 973.692 497.61 969.362 499.37C971.702 494.73 983.612 490.03 1006.03 484.46C1001.66 465.48 990.462 450.74 976.302 438.1C972.732 434.91 969.302 430.06 963.142 431.5C948.592 434.89 933.602 437.05 919.602 441.98C892.852 451.4 867.072 463.22 843.972 480.1C823.462 495.09 805.302 512.41 791.042 533.58C788.622 537.17 786.942 541.58 783.772 544.26C779.402 547.96 774.092 550.67 768.922 553.28C758.782 558.4 752.812 565.02 754.002 577.76C755.192 590.46 753.972 603.39 753.652 616.22C753.472 623.38 750.972 625.24 744.192 623.82C743.242 623.62 742.172 623.52 741.252 623.76C723.702 628.19 706.192 632.73 688.632 637.09C684.452 638.13 682.762 640.34 683.522 644.59C684.862 652.11 686.062 659.66 687.412 667.18C687.772 669.21 688.462 671.19 689.072 673.46C699.492 664.9 705.232 668.09 710.842 673.92C712.862 676.02 714.302 678.78 715.592 681.44C723.372 697.49 725.512 714.77 726.392 732.3C726.562 735.75 726.412 739.21 726.412 743.58C738.672 739.32 750.312 734.48 763.532 735.5C762.962 736.2 762.752 736.72 762.392 736.86C751.562 741 740.782 745.26 729.862 749.17C718.962 753.08 707.252 755.44 698.222 763.14C688.452 771.49 678.832 780.15 670.142 789.6C657.242 803.63 644.222 817.76 633.152 833.2C623.932 846.06 612.922 856.56 600.142 865.06C586.802 873.93 572.452 881.31 558.382 889.06C539.352 899.54 520.212 909.8 501.062 920.05C478.242 932.27 455.462 944.58 434.772 960.3C427.292 965.98 420.092 972.04 413.462 977.36C417.762 984.7 422.522 990.87 425.242 997.84C434.292 1020.97 436.522 1045.27 435.582 1069.91C435.322 1076.63 431.832 1079.35 425.502 1076.89C415.202 1072.89 404.892 1068.67 395.212 1063.39C386.252 1058.49 378.132 1052.08 369.362 1046.14L369.382 1046.13ZM443.952 1307.83C447.202 1308.22 450.042 1308.34 452.782 1308.93C468.042 1312.21 483.422 1315.09 498.502 1319.08C521.102 1325.06 543.692 1331.23 565.902 1338.48C583.392 1344.18 600.352 1351.54 617.472 1358.37C621.972 1360.17 625.582 1360.08 629.882 1357.3C644.332 1347.94 658.722 1338.39 673.822 1330.17C694.072 1319.16 714.982 1309.39 735.562 1298.99C764.342 1284.45 793.852 1271.61 824.552 1261.74C861.422 1249.89 899.212 1241.61 937.032 1233.41C964.242 1227.51 992.202 1225.79 1019.07 1218.1C1022.85 1217.02 1027.03 1217.42 1030.91 1216.57C1049.48 1212.47 1068.24 1211.91 1087.06 1213.76C1111.41 1216.16 1135.7 1219.11 1160.05 1221.53C1187.68 1224.28 1215.23 1224.27 1242.56 1218.31C1262.83 1213.89 1279.03 1204.19 1287.4 1184.32C1293 1171.03 1297 1156.99 1296.21 1142.66C1295.17 1123.63 1292.11 1104.71 1290.07 1087.04C1296.6 1109.79 1308.91 1132.77 1302.47 1160.67C1307.86 1156.96 1311.57 1154.31 1315.38 1151.79C1325.06 1145.4 1335.27 1139.75 1342.68 1130.39C1347.19 1124.69 1352.19 1119.37 1357.05 1113.95C1359.3 1111.43 1362.1 1110.46 1364.72 1113.14C1374.47 1123.13 1386.54 1124.86 1399.64 1123.46C1405.74 1122.81 1410.8 1120.12 1413.31 1114.72C1418.26 1104.09 1423.01 1093.31 1426.89 1082.26C1434.1 1061.78 1437.22 1040.63 1434.5 1018.9C1433.39 1010.05 1429.6 1002.71 1421.13 998.65C1417.85 997.08 1414.53 995.47 1411.06 994.39C1401.58 991.45 1396.88 985.59 1397.01 975.28C1397.11 967.13 1394.26 964.67 1386.34 964.4C1359.95 963.49 1334.29 967.38 1309.8 977.35C1303.04 980.1 1295.87 983.55 1292.68 990.77C1288.47 1000.28 1285.62 1010.4 1281.31 1019.85C1275.28 1033.08 1269.81 1046.87 1261.68 1058.77C1243.34 1085.62 1217.57 1103.66 1187.75 1116.24C1160.61 1127.68 1131.98 1132.36 1103 1135.58C1073.33 1138.88 1043.58 1140.51 1013.72 1140.26C1010.5 1140.23 1006.94 1140.8 1004.11 1142.22C989.892 1149.35 975.592 1156.41 961.802 1164.32C933.602 1180.51 905.702 1197.23 877.662 1213.7C876.262 1214.52 874.712 1215.4 873.162 1215.56C867.222 1216.17 861.202 1216.12 855.312 1217.01C834.782 1220.12 814.172 1222.93 793.822 1226.98C773.532 1231.02 754.192 1238.21 736.772 1249.66C726.682 1256.29 717.152 1263.77 707.102 1270.47C692.362 1280.29 680.472 1293.61 665.172 1302.95C653.432 1310.12 642.002 1312.81 628.892 1310.28C627.032 1309.92 625.142 1309.69 623.012 1309.36C622.832 1310.75 622.632 1311.55 622.632 1312.34C622.642 1319.34 622.922 1326.35 622.602 1333.33C622.502 1335.55 621.342 1338.49 619.672 1339.59C618.502 1340.36 615.352 1338.99 613.582 1337.82C599.772 1328.75 588.932 1316.79 580.102 1302.89C578.852 1300.92 576.922 1298.94 574.842 1298.02C566.532 1294.34 558.032 1291.09 549.212 1287.52C548.702 1288.28 548.432 1288.93 547.962 1289.37C543.702 1293.32 539.622 1293.01 535.722 1288.44C534.962 1287.55 534.092 1286.73 533.512 1285.74C531.142 1281.75 527.592 1279.98 523.112 1278.9C515.862 1277.15 508.472 1275.35 501.732 1272.28C495.182 1269.29 487.042 1275.61 481.622 1268.25C481.492 1268.07 480.982 1268.18 480.652 1268.13C470.162 1266.33 459.682 1264.44 449.182 1262.73C437.352 1260.8 436.882 1261.38 435.342 1273.49C434.762 1278.07 433.912 1282.04 438.972 1284.96C440.562 1285.88 441.282 1288.96 441.682 1291.17C442.652 1296.55 443.202 1302.01 443.972 1307.81L443.952 1307.83ZM1349.4 514.95C1350.41 516.7 1350.81 517.81 1351.54 518.61C1369.32 538.04 1384.42 559.37 1396.54 582.75C1398.29 586.12 1399.65 586.49 1402.93 584.93C1417.33 578.08 1431.84 571.44 1446.35 564.83C1450.39 562.99 1454.58 561.49 1458.71 559.83L1458.99 560.57C1439.76 570.53 1420.54 580.49 1400.92 590.66C1405.34 599.24 1409.38 607.08 1413.6 615.26C1414.83 614.4 1415.81 613.84 1416.63 613.1C1448.86 584.15 1483.67 558.91 1522.62 539.69C1548.07 527.13 1573.64 514.81 1599.15 502.35C1608.57 497.75 1617.82 492.87 1624.3 484.21C1627.91 479.38 1630.91 474.31 1629.25 467.52C1594.23 472.06 1560.87 482.01 1527.69 492.74C1558.28 476.07 1591.05 466.11 1625.65 459.91C1620.65 455.59 1615.79 451.66 1610.24 449.65C1592.43 443.18 1573.78 440.73 1554.9 440.02C1530.04 439.08 1505.24 440.32 1480.78 444.61C1462.16 447.87 1443.47 451.58 1425.46 457.18C1404.28 463.77 1383.72 472.42 1363.04 480.56C1351.68 485.03 1340.62 490.27 1329.56 495.1C1332.19 497.88 1334.55 500.43 1336.97 502.92C1339.35 505.36 1341.79 507.74 1343.83 509.77C1386.12 490.2 1431.18 484.64 1476.32 479.37C1433.27 487.98 1391.64 501.5 1349.44 514.94L1349.4 514.95ZM1153.85 464.06C1154.01 464.47 1154.16 464.88 1154.32 465.29C1144.24 470.23 1133.16 473.22 1123.17 480.3C1128.93 481.67 1133.55 482.9 1138.24 483.8C1139.56 484.05 1141.27 483.69 1142.44 482.99C1150.29 478.35 1157.92 473.32 1165.86 468.83C1187.09 456.85 1208.56 445.28 1229.71 433.15C1240.59 426.91 1251.4 420.36 1261.44 412.88C1267.46 408.39 1271.49 401.6 1271.56 392.38C1254.62 396.93 1238.26 401.33 1221.9 405.73C1221.79 405.3 1221.68 404.87 1221.57 404.44C1237.65 399.1 1253.74 393.76 1270.29 388.27C1267.72 382.62 1263.16 377.8 1257.05 375.23C1237.61 367.06 1216.81 365.96 1196.22 366.29C1177.32 366.59 1158.38 368.74 1139.61 371.25C1116.35 374.35 1093.25 379.08 1071.4 387.78C1047.03 397.48 1023.18 408.5 999.212 419.17C991.752 422.49 984.602 426.51 976.962 430.39C980.492 433.52 983.352 436.32 986.512 438.69C987.522 439.45 989.672 439.67 990.802 439.12C1009.98 429.8 1030.59 424.79 1051 419.22C1061.55 416.34 1072.26 414.07 1082.95 411.73C1088.35 410.55 1093.85 409.81 1099.3 408.87C1084.55 411.6 1000.69 440.78 994.972 445.53C1001.43 457.95 1007.79 470.18 1014.24 482.58C1021.81 481.65 1030.22 480.66 1038.61 479.59C1061.83 476.61 1085.06 475.92 1108.4 478.27C1112.65 478.7 1117.22 477.5 1121.44 476.34C1125.89 475.11 1130.08 472.96 1134.42 471.31C1140.88 468.85 1147.37 466.48 1153.85 464.08V464.06ZM688.682 1231.32C686.762 1232.2 685.422 1232.73 684.152 1233.4C672.292 1239.67 660.572 1246.2 648.572 1252.19C636.482 1258.23 624.732 1259.26 612.172 1251.61C601.662 1245.21 589.762 1241.11 577.732 1235.65C575.972 1239.37 574.492 1241.91 573.572 1244.63C572.562 1247.61 572.112 1250.77 571.362 1253.84C570.712 1256.49 569.992 1259.12 569.312 1261.76C568.592 1261.55 567.882 1261.35 567.162 1261.14C569.372 1252.65 571.582 1244.16 573.932 1235.13C556.642 1230.26 539.112 1225.33 520.412 1220.06C519.572 1225.82 517.422 1230.98 518.452 1235.4C520.802 1245.46 524.092 1255.43 528.192 1264.91C531.542 1272.65 536.622 1279.64 541.042 1287.15C548.972 1280.67 555.702 1275.08 562.522 1269.6C569.652 1263.88 570.492 1264.11 573.222 1273C578.392 1289.92 586.662 1305.06 599.062 1317.74C604.152 1322.95 609.812 1327.61 615.222 1332.51L616.832 1331.55C616.832 1329.83 616.772 1328.1 616.842 1326.38C617.432 1312.76 617.892 1299.12 618.782 1285.52C618.952 1282.99 620.872 1280.57 622.082 1277.86C629.972 1288.26 637.862 1296.63 647.792 1302.85C648.882 1303.53 651.562 1303.18 652.542 1302.27C656.762 1298.32 660.952 1294.24 664.552 1289.73C677.262 1273.83 683.652 1254.99 688.972 1235.72C689.282 1234.59 688.842 1233.24 688.692 1231.31L688.682 1231.32ZM1603.81 892.04C1598.97 882.57 1594.02 874.88 1586.64 869.08C1558.56 847.04 1530.4 825.11 1494.78 816.16C1486.56 814.09 1478.35 811.95 1470.99 810.07C1474.62 818.29 1478.1 826.47 1481.9 834.49C1482.41 835.57 1484.43 836.26 1485.86 836.53C1490.24 837.36 1495.02 837.07 1499.03 838.71C1508.35 842.52 1517.34 847.14 1526.38 851.61C1527.99 852.41 1529.16 854.1 1530.53 855.38C1517.58 848.86 1493.68 841.66 1483.62 842.39C1489.5 865.35 1484.43 887.8 1479.72 910.89C1481.6 910.34 1482.53 910.17 1483.38 909.81C1503.27 901.35 1524 897.21 1545.61 898.09C1560.41 898.69 1575.19 899.79 1589.98 900.53C1593.1 900.69 1596.3 900.52 1599.36 899.95C1600.72 899.7 1602.26 898.3 1602.87 897.02C1603.14 896.45 1601.53 894.54 1600.4 893.82C1593.95 889.73 1587.38 885.81 1580.86 881.83L1581.35 880.78C1588.38 884.3 1595.4 887.83 1603.82 892.04H1603.81ZM470.112 1220.98C470.682 1220.91 471.262 1220.84 471.832 1220.77C472.452 1221.78 473.482 1222.74 473.622 1223.81C475.402 1237.49 481.062 1249.83 486.682 1262.2C488.252 1265.65 490.322 1265.94 492.672 1263.24C497.802 1257.37 502.902 1251.46 507.752 1245.36C510.602 1241.77 513.562 1238.05 515.372 1233.91C517.232 1229.67 517.742 1224.85 518.912 1220.02C498.122 1214.44 476.912 1208.33 455.482 1203.11C435.572 1198.26 415.422 1194.34 395.372 1190.01C388.782 1218.8 408.772 1268.8 428.422 1284.39C428.782 1282.67 429.212 1281.08 429.442 1279.46C431.112 1267.76 433.772 1256.37 438.822 1245.56C439.652 1243.78 438.752 1240.75 437.832 1238.66C434.092 1230.19 429.772 1221.97 426.202 1213.43C424.802 1210.07 424.802 1206.13 424.162 1202.45C424.862 1202.23 425.552 1202 426.252 1201.78C435.122 1220.16 442.092 1239.7 456.982 1254.55C461.512 1242.98 465.812 1231.99 470.112 1220.99V1220.98ZM894.552 1196.35C904.982 1190.59 914.872 1185.27 924.572 1179.62C926.212 1178.67 927.392 1176.43 928.142 1174.53C931.092 1166.99 933.492 1159.21 936.692 1151.78C938.592 1147.38 941.602 1143.45 944.652 1138.43C937.832 1138.43 931.882 1138.35 925.942 1138.45C907.752 1138.75 889.792 1140.88 872.172 1145.48C865.492 1147.22 864.842 1147.65 867.232 1154.4C869.912 1161.99 872.932 1169.73 877.332 1176.39C882.092 1183.59 888.632 1189.62 894.552 1196.35ZM841.902 1213.44C843.902 1190.93 854.262 1171.24 860.942 1149.16C833.942 1156.1 810.582 1167.83 786.262 1178.21C787.192 1179.31 787.442 1179.8 787.832 1180.03C802.352 1188.53 814.292 1199.71 823.352 1213.95C823.912 1214.82 825.462 1215.66 826.452 1215.56C831.542 1215.04 836.612 1214.2 841.912 1213.44H841.902ZM706.992 1219.69C716.972 1228.94 719.402 1240.41 722.432 1251.76C723.562 1251.33 724.352 1251.11 725.052 1250.74C736.902 1244.52 748.762 1238.3 760.562 1231.98C761.412 1231.52 762.142 1230.36 762.412 1229.38C764.272 1222.68 766.652 1216.02 767.562 1209.18C768.472 1202.31 766.462 1195.58 763.222 1188.5C744.352 1198.96 726.052 1209.11 706.992 1219.68V1219.69ZM636.782 817.05C656.272 796.71 672.422 774.2 694.532 756.93C691.782 755.15 689.212 753.88 687.132 752.05C681.602 747.16 675.962 747.24 670.482 751.64C663.572 757.19 656.542 762.69 650.372 769.01C645.972 773.52 640.972 778.91 639.692 784.67C637.362 795.16 637.612 806.22 636.782 817.05ZM848.412 1212.18C865.982 1214.7 880.092 1209.06 892.472 1197.32C877.912 1190.28 870.312 1177.67 863.762 1163.53C857.382 1179.59 850.742 1195.19 848.412 1212.18ZM780.892 1183.73C776.992 1199.14 773.352 1213.54 769.742 1227.81C785.412 1224.08 801.022 1220.36 817.552 1216.43C805.542 1204.93 796.782 1191.13 780.892 1183.73ZM674.022 1288.89C687.172 1278.6 700.622 1268.15 713.932 1257.53C714.942 1256.72 715.512 1254.71 715.442 1253.31C714.862 1242.82 708.042 1235.57 701.792 1228.12C700.782 1226.92 698.032 1225.42 697.652 1225.76C696.142 1227.15 694.262 1229.22 694.272 1231.03C694.352 1242.23 691.652 1252.73 686.972 1262.75C682.802 1271.69 678.222 1280.44 674.022 1288.89ZM389.682 1050.03C398.642 1055.56 397.122 1056.74 403.122 1046.99C407.582 1039.75 411.102 1031.6 409.532 1023.03C408.052 1014.98 404.612 1007.29 401.812 998.76C401.112 1008.46 400.682 1017.22 399.812 1025.92C398.922 1034.79 395.742 1042.84 389.692 1050.02L389.682 1050.03ZM513.982 1245.07C508.672 1251.82 503.482 1258.4 498.172 1265.14C506.692 1267.51 515.372 1269.93 524.412 1272.45C520.762 1262.88 517.332 1253.88 513.972 1245.08L513.982 1245.07ZM469.052 1230.58C465.942 1240.53 463.242 1249.17 460.452 1258.11C467.282 1259.63 473.362 1260.97 479.752 1262.39C476.262 1252 472.912 1242.06 469.052 1230.58ZM624.282 1288.74C623.752 1293.76 623.222 1298.75 622.672 1303.91C629.172 1304.49 634.832 1304.99 641.372 1305.57C635.202 1299.49 629.872 1294.25 624.282 1288.74ZM555.472 1282.59C561.342 1284.7 566.732 1286.65 572.672 1288.79C570.792 1283.23 569.162 1278.44 567.402 1273.22C563.162 1276.55 559.432 1279.48 555.472 1282.59ZM450.152 1256.25C447.532 1252.89 445.342 1250.07 442.962 1247.03C441.942 1250.19 441.012 1253.05 439.972 1256.25H450.152Z" fill="#0A0A0B"/>
<path d="M369.38 1046.13C378.15 1052.07 386.27 1058.49 395.23 1063.38C404.9 1068.67 415.22 1072.88 425.52 1076.88C431.85 1079.34 435.35 1076.62 435.6 1069.9C436.54 1045.26 434.31 1020.97 425.26 997.83C422.54 990.86 417.78 984.69 413.48 977.35C420.1 972.03 427.3 965.98 434.79 960.29C455.48 944.57 478.25 932.27 501.08 920.04C520.23 909.79 539.37 899.53 558.4 889.05C572.47 881.3 586.82 873.93 600.16 865.05C612.94 856.55 623.961 846.04 633.171 833.19C644.241 817.74 657.26 803.62 670.16 789.59C678.84 780.14 688.47 771.48 698.24 763.13C707.26 755.42 718.97 753.06 729.88 749.16C740.79 745.25 751.58 740.99 762.41 736.85C762.77 736.71 762.98 736.19 763.55 735.49C750.33 734.47 738.68 739.31 726.43 743.57C726.43 739.2 726.58 735.74 726.41 732.29C725.53 714.76 723.39 697.48 715.61 681.43C714.32 678.77 712.87 676 710.86 673.91C705.25 668.08 699.51 664.89 689.09 673.45C688.48 671.17 687.8 669.2 687.43 667.17C686.08 659.65 684.88 652.1 683.54 644.58C682.78 640.33 684.47 638.12 688.65 637.08C706.21 632.72 723.73 628.17 741.27 623.75C742.19 623.52 743.26 623.62 744.21 623.81C750.99 625.22 753.491 623.37 753.671 616.21C754.001 603.38 755.21 590.45 754.02 577.75C752.83 565.01 758.8 558.39 768.94 553.27C774.11 550.66 779.42 547.95 783.79 544.25C786.96 541.57 788.64 537.16 791.06 533.57C805.32 512.4 823.48 495.08 843.99 480.09C867.09 463.21 892.87 451.39 919.62 441.97C933.63 437.04 948.61 434.88 963.16 431.49C969.32 430.05 972.75 434.9 976.32 438.09C990.48 450.72 1001.68 465.46 1006.05 484.45C983.64 490.02 971.73 494.72 969.38 499.36C973.71 497.61 977.531 495.63 981.581 494.51C990.051 492.17 998.561 489.81 1007.2 488.31C1040.04 482.62 1073.18 481.01 1106.29 484.57C1121.9 486.25 1137.43 489.94 1152.6 494.16C1172.56 499.71 1192.19 506.49 1211.83 513.13C1217.07 514.9 1221.83 518.08 1226.86 520.63C1216.25 530.02 1205.64 538.9 1195.64 548.42C1185.54 558.04 1176.67 568.77 1169.56 581.44C1174.08 581.87 1176.43 579.52 1178.63 576.52C1193.08 556.8 1210.71 540.42 1230.9 526.7C1249.14 514.3 1269.24 505.95 1290.1 499.19C1297.51 496.79 1304.79 493.99 1312.28 491.88C1314.22 491.34 1317.36 491.99 1318.82 493.33C1345.91 517.94 1368.79 545.99 1386.5 578.08C1393.71 591.14 1400.3 604.55 1407.35 617.71C1409.22 621.19 1409.27 624.17 1407.04 627.42C1396.25 643.13 1385.8 659.07 1374.7 674.55C1364.67 688.53 1357.13 703.66 1351.36 719.78C1347.75 729.86 1344.01 739.89 1340.35 749.95C1340.08 750.7 1339.99 751.51 1340.18 752.46C1356.07 732.29 1361.24 706.42 1376.01 684.37C1378.86 697.94 1377.92 710.23 1374.33 722.21C1370.2 736.01 1365.31 749.59 1360.86 763.3C1360.32 764.96 1360.47 766.83 1360.17 770C1362.8 765.57 1364.69 762.39 1366.57 759.21C1367.1 759.11 1367.64 759.02 1368.17 758.92C1367.33 780.13 1372 798.33 1393.75 807.17C1386.67 812.97 1380.02 818.41 1373.37 823.86C1373.63 824.26 1373.89 824.66 1374.16 825.06C1385.31 815.93 1398.55 811.18 1412.13 808.19C1422.22 805.97 1432.93 805.23 1443.26 805.75C1459.67 806.57 1469.34 816.95 1474.18 831.96C1480.22 850.67 1482.2 869.82 1477.33 889.05C1470.59 915.66 1454.32 934.22 1427.66 941.7C1408.33 947.12 1388.77 943.81 1369.58 939.04C1368.81 938.85 1368.02 938.72 1367.23 938.6C1367.14 938.59 1367.01 938.79 1366.26 939.49C1376.41 944.33 1387.49 944.24 1398.21 947.1C1393.71 952.12 1389.81 956.74 1385.57 961C1384.63 961.94 1382.46 961.72 1380.83 961.9C1367.31 963.43 1353.7 964.46 1340.27 966.57C1326.08 968.8 1312.03 971.98 1299.97 980.59C1288.09 980.5 1288.74 991.23 1285.76 998.03C1276.07 1020.15 1269.1 1043.6 1252.88 1062.35C1237.06 1080.64 1218.32 1095.45 1196.22 1105.12C1180.78 1111.88 1164.63 1117.43 1148.31 1121.64C1134.06 1125.31 1119.17 1126.65 1104.49 1128.49C1060.89 1133.98 1017.14 1134.17 973.271 1132.47C950.831 1131.6 928.28 1131.95 905.86 1133.14C893.88 1133.78 881.93 1136.84 870.19 1139.74C831.89 1149.19 796.56 1166.82 759.75 1180.41C731.18 1190.96 704.37 1205.07 678.59 1221.15C668.91 1227.19 660.091 1234.59 650.451 1240.7C645.221 1244.01 639.2 1246.17 633.35 1248.36C628.05 1250.35 623.14 1248.09 618.77 1245.3C604.35 1236.09 588.63 1229.88 572.29 1225.32C535.2 1214.97 498.08 1204.7 460.83 1194.97C445.26 1190.91 429.29 1188.39 413.53 1185.04C406.18 1183.48 399.73 1182.4 396.96 1172.55C394.21 1162.74 390.02 1153.3 388.73 1143.01C387.36 1132.11 386.82 1121 384.21 1110.4C380.42 1094.98 375.12 1079.94 370.41 1064.75C370.07 1063.66 369.43 1062.63 368.77 1061.68C365.07 1056.37 365.28 1051.19 369.4 1046.12L369.38 1046.13ZM685.55 888.25C684.66 888.25 683.56 888.57 682.93 888.16C681.8 887.42 681.12 885.91 679.94 885.32C672.75 881.67 665.111 880.06 658.201 880.85C659.671 881.2 662.25 881.73 664.79 882.42C671.75 884.3 678.69 886.25 685.62 888.18L685.56 888.04L685.54 888.25H685.55ZM962.771 946.52C981.831 946.64 1000.31 943.18 1018.02 936.64C1040.72 928.26 1061.36 916 1080.2 900.76C1100.69 884.18 1115.06 863.14 1123.61 838.45C1130.15 819.56 1127.93 800.43 1121.91 781.58C1111.4 748.7 1088.32 730.55 1055.15 724.16C1038.98 721.04 1022.68 721.23 1006.39 723.11C986.931 725.36 968.46 730.69 951.17 740.22C930.17 751.8 914.57 769.26 900.44 787.8C890.72 800.55 885.231 815.96 881.701 831.8C876.821 853.67 876.62 875.53 881.22 897.48C884 910.74 891.41 920.99 902.24 928.41C920.38 940.83 940.83 946.42 962.76 946.52H962.771ZM669.27 1019.84C664.74 1020.39 659.21 1020.67 653.86 1021.78C621.7 1028.5 594.65 1044.6 571.49 1067.52C563.75 1075.18 556.42 1083.25 548.95 1091.17C548.17 1092 547.64 1093.1 547.12 1094.14C545.3 1097.83 547.32 1101.35 551.46 1101.34C554.09 1101.34 556.77 1100.95 559.35 1100.36C577.7 1096.14 596.12 1092.72 615.06 1092.56C637.18 1092.37 658.8 1095.91 680.46 1099.88C686.62 1101.01 693.71 1101.07 699.56 1099.14C723.64 1091.15 731.111 1055.16 713.201 1036.27C701.441 1023.87 686.49 1020.29 669.29 1019.84H669.27ZM1214.22 850.95C1230.37 852.93 1242.7 861.76 1254.66 871.93C1273.78 888.2 1278.53 924.9 1250.82 945.12C1234.53 957.01 1215.97 961.02 1196.69 962.99C1170.53 965.66 1144.28 967.9 1119.73 978.21C1112.19 981.38 1105.33 986.21 1098.33 990.56C1097.38 991.15 1097.43 993.35 1097.02 994.81C1098.53 995.05 1100.04 995.51 1101.54 995.46C1102.44 995.43 1103.33 994.66 1104.2 994.18C1119.09 986.1 1135.03 980.86 1151.65 978.17C1169.05 975.36 1186.6 973.51 1204.1 971.37C1223.15 969.04 1241.07 963.95 1256.7 952.07C1281.17 933.49 1284.79 906.01 1273.49 881.63C1263.27 859.58 1240.93 850.87 1214.23 850.94L1214.22 850.95ZM916.8 620.55C916.88 620.86 916.951 621.18 917.031 621.49C926.401 620.53 935.97 620.45 945.1 618.42C965.35 613.93 985.291 608.05 1005.53 603.52C1021.41 599.96 1037.44 596.49 1053.59 594.89C1089.09 591.37 1116.23 608.4 1140 632.53C1142.33 634.9 1144.72 637.22 1147.09 639.56C1145.38 635.04 1143.21 630.91 1140.23 627.48C1116.1 599.72 1086.74 583.45 1048.79 587.58C1035.59 589.02 1022.42 591.19 1009.43 593.95C990.82 597.9 972.151 601.7 954.341 608.86C947.151 611.75 939.32 613.02 931.86 615.27C926.78 616.8 921.82 618.77 916.81 620.54L916.8 620.55ZM1263.74 832.04C1263.78 832.95 1263.82 833.86 1263.86 834.77C1250.35 839.52 1236.85 844.27 1223.34 849.02C1229.6 847.79 1236.2 848.01 1242.62 847.03C1249.61 845.96 1256.56 844.13 1263.28 841.92C1266.95 840.71 1270.68 838.47 1270.56 833.49C1270.44 828.67 1266.95 826.59 1263.22 825.04C1253.93 821.17 1244.54 817.52 1234.31 813.43C1236.58 812.41 1238.15 811.66 1239.76 810.98C1244.8 808.86 1250.04 807.11 1254.81 804.49C1256.9 803.34 1259.39 800.33 1259.23 798.37C1259.07 796.34 1256.25 793.79 1254.01 792.78C1244.73 788.58 1234.69 787.56 1224.71 788.22C1218.21 788.66 1211.8 790.81 1205.42 792.45C1204.21 792.76 1203.29 794.26 1202.24 795.21C1210.86 795.41 1218.89 793.87 1226.89 794.01C1234.86 794.15 1243.14 794.6 1251.28 799.1C1241.71 803.08 1233.13 806.51 1224.69 810.28C1223.14 810.97 1220.92 813.46 1221.23 814.32C1221.82 815.98 1223.8 817.6 1225.57 818.28C1229.74 819.89 1234.21 820.73 1238.41 822.27C1246.9 825.39 1255.3 828.77 1263.74 832.04ZM796.23 539.35L795.81 540.72C797.72 541.19 799.63 541.72 801.56 542.12C810.29 543.92 818.74 546.82 822.38 555.67C825.75 563.87 828.51 572.52 830 581.24C832.12 593.57 832.83 606.15 834.1 618.14C834.34 617.46 835.05 616.25 835.18 614.98C836.57 601.28 838.81 587.57 835.22 573.86C832.31 562.73 828.9 552.03 817.94 545.71C811.1 541.77 804.08 539.21 796.24 539.35H796.23ZM885.461 595.13C918.201 565.89 954.03 540.95 992.05 519.1C952.62 538.89 916.931 563.98 885.461 595.13ZM929.841 510.97C907.861 519.32 888.17 531.55 869.6 545.7C889.68 534.12 909.761 522.55 929.841 510.97ZM849.62 647.33C839.17 653.11 820.48 690.06 823.98 697.53C831.4 679.92 834.51 660.59 849.62 647.33ZM546.11 953.86C562.66 940.98 579.21 928.11 595.16 915.7C587.87 917.78 553.39 943.99 546.11 953.86ZM772.82 655.21C771.62 648.42 769.62 641.87 764.13 636.9C767.1 643.15 769.96 649.18 772.82 655.21Z" fill="#EDEAE5"/>
<path d="M443.949 1307.83C443.179 1302.02 442.629 1296.57 441.659 1291.19C441.259 1288.97 440.539 1285.9 438.949 1284.98C433.889 1282.05 434.729 1278.08 435.319 1273.51C436.859 1261.4 437.329 1260.82 449.159 1262.75C459.669 1264.46 470.139 1266.35 480.629 1268.15C480.959 1268.21 481.469 1268.09 481.599 1268.27C487.029 1275.63 495.159 1269.32 501.709 1272.3C508.449 1275.37 515.839 1277.17 523.089 1278.92C527.569 1280 531.119 1281.77 533.489 1285.76C534.079 1286.75 534.949 1287.58 535.699 1288.46C539.592 1293.02 543.672 1293.33 547.939 1289.39C548.409 1288.95 548.679 1288.31 549.189 1287.54C558.009 1291.11 566.509 1294.37 574.819 1298.04C576.899 1298.96 578.829 1300.94 580.079 1302.91C588.919 1316.81 599.749 1328.77 613.559 1337.84C615.329 1339 618.479 1340.38 619.649 1339.61C621.319 1338.52 622.479 1335.57 622.579 1333.35C622.909 1326.37 622.629 1319.36 622.609 1312.36C622.609 1311.56 622.809 1310.76 622.989 1309.38C625.119 1309.71 627.009 1309.94 628.869 1310.3C641.979 1312.83 653.409 1310.14 665.149 1302.97C680.449 1293.63 692.339 1280.31 707.079 1270.49C717.129 1263.79 726.659 1256.31 736.749 1249.68C754.169 1238.23 773.519 1231.04 793.799 1227C814.149 1222.95 834.759 1220.14 855.289 1217.03C861.179 1216.14 867.199 1216.19 873.139 1215.58C874.689 1215.42 876.249 1214.54 877.639 1213.72C905.679 1197.25 933.579 1180.53 961.779 1164.34C975.569 1156.42 989.859 1149.37 1004.09 1142.24C1006.92 1140.82 1010.48 1140.26 1013.7 1140.28C1043.56 1140.53 1073.31 1138.9 1102.98 1135.6C1131.96 1132.38 1160.59 1127.7 1187.73 1116.26C1217.55 1103.69 1243.33 1085.64 1261.66 1058.79C1269.79 1046.89 1275.26 1033.1 1281.29 1019.87C1285.6 1010.41 1288.45 1000.3 1292.66 990.79C1295.85 983.58 1303.02 980.13 1309.78 977.37C1334.28 967.4 1359.94 963.51 1386.32 964.42C1394.24 964.69 1397.09 967.16 1396.99 975.3C1396.86 985.6 1401.57 991.46 1411.04 994.41C1414.5 995.49 1417.82 997.09 1421.11 998.67C1429.58 1002.73 1433.37 1010.07 1434.48 1018.92C1437.21 1040.65 1434.08 1061.79 1426.87 1082.28C1422.98 1093.33 1418.24 1104.12 1413.29 1114.74C1410.78 1120.13 1405.72 1122.83 1399.62 1123.48C1386.52 1124.88 1374.45 1123.15 1364.7 1113.16C1362.08 1110.48 1359.28 1111.45 1357.03 1113.97C1352.18 1119.4 1347.18 1124.71 1342.66 1130.41C1335.25 1139.77 1325.04 1145.42 1315.36 1151.81C1311.55 1154.32 1307.84 1156.97 1302.45 1160.69C1308.88 1132.78 1296.58 1109.8 1290.05 1087.06C1292.09 1104.73 1295.15 1123.65 1296.19 1142.68C1296.98 1157.02 1292.98 1171.06 1287.38 1184.34C1279.01 1204.21 1262.8 1213.91 1242.54 1218.33C1215.21 1224.29 1187.66 1224.3 1160.03 1221.55C1135.68 1219.13 1111.39 1216.18 1087.04 1213.78C1068.22 1211.93 1049.46 1212.49 1030.89 1216.59C1027.02 1217.44 1022.83 1217.04 1019.05 1218.12C992.179 1225.81 964.219 1227.53 937.009 1233.43C899.189 1241.63 861.399 1249.9 824.529 1261.76C793.819 1271.63 764.309 1284.46 735.539 1299.01C714.959 1309.41 694.039 1319.18 673.799 1330.19C658.699 1338.4 644.309 1347.96 629.859 1357.32C625.569 1360.1 621.959 1360.19 617.449 1358.39C600.339 1351.56 583.379 1344.21 565.879 1338.5C543.659 1331.26 521.079 1325.08 498.479 1319.1C483.399 1315.11 468.019 1312.23 452.759 1308.95C450.019 1308.36 447.169 1308.24 443.929 1307.85L443.949 1307.83ZM470.539 1287.53C477.699 1289.37 484.929 1291 492.019 1293.09C499.239 1295.22 506.339 1297.79 513.489 1300.17C513.379 1300.58 513.269 1300.99 513.169 1301.4C505.489 1300.9 497.799 1300.4 490.119 1299.9C500.689 1302.16 511.159 1305.41 522.379 1303.7C519.339 1297.74 480.199 1285.34 470.549 1287.53H470.539Z" fill="#EDEAE5"/>
<path d="M1349.4 514.95C1391.6 501.51 1433.23 487.99 1476.28 479.38C1431.14 484.65 1386.07 490.2 1343.79 509.78C1341.75 507.75 1339.31 505.37 1336.93 502.93C1334.51 500.44 1332.15 497.89 1329.52 495.11C1340.58 490.28 1351.64 485.04 1363 480.57C1383.68 472.44 1404.24 463.78 1425.42 457.19C1443.43 451.59 1462.12 447.88 1480.74 444.62C1505.21 440.33 1530.01 439.09 1554.86 440.03C1573.74 440.74 1592.38 443.19 1610.2 449.66C1615.75 451.68 1620.61 455.6 1625.61 459.92C1591.02 466.12 1558.24 476.08 1527.65 492.75C1560.83 482.02 1594.19 472.07 1629.21 467.53C1630.86 474.32 1627.87 479.4 1624.26 484.22C1617.78 492.88 1608.53 497.76 1599.11 502.36C1573.61 514.82 1548.04 527.14 1522.58 539.7C1483.63 558.92 1448.82 584.16 1416.59 613.11C1415.77 613.85 1414.79 614.4 1413.56 615.27C1409.35 607.09 1405.3 599.25 1400.88 590.67C1420.5 580.51 1439.72 570.54 1458.95 560.58L1458.67 559.84C1454.55 561.5 1450.35 563 1446.31 564.84C1431.8 571.45 1417.29 578.09 1402.89 584.94C1399.62 586.5 1398.25 586.13 1396.5 582.76C1384.38 559.38 1369.29 538.05 1351.5 518.62C1350.77 517.82 1350.37 516.71 1349.36 514.96L1349.4 514.95ZM1458.02 525.79C1458.28 526.25 1458.54 526.71 1458.8 527.17L1503.31 505.44C1487.46 510.64 1472.3 517.3 1458.02 525.78V525.79Z" fill="#EDEAE5"/>
<path d="M1153.85 464.06C1147.37 466.47 1140.88 468.84 1134.42 471.29C1130.08 472.94 1125.89 475.09 1121.44 476.32C1117.22 477.49 1112.66 478.68 1108.4 478.25C1085.06 475.9 1061.83 476.6 1038.61 479.57C1030.22 480.65 1021.81 481.64 1014.24 482.56C1007.79 470.16 1001.43 457.93 994.971 445.51C1000.69 440.76 1084.55 411.57 1099.3 408.85C1093.85 409.79 1088.35 410.52 1082.95 411.71C1072.27 414.05 1061.55 416.33 1051 419.2C1030.6 424.77 1009.99 429.78 990.801 439.1C989.671 439.65 987.521 439.42 986.511 438.67C983.341 436.3 980.491 433.5 976.961 430.37C984.601 426.49 991.751 422.47 999.211 419.15C1023.19 408.48 1047.03 397.46 1071.4 387.76C1093.24 379.07 1116.35 374.34 1139.61 371.23C1158.38 368.72 1177.32 366.57 1196.22 366.27C1216.8 365.94 1237.6 367.05 1257.05 375.21C1263.16 377.78 1267.72 382.59 1270.29 388.25C1253.73 393.74 1237.65 399.08 1221.57 404.42C1221.68 404.85 1221.79 405.28 1221.9 405.71C1238.26 401.31 1254.62 396.92 1271.56 392.36C1271.49 401.58 1267.47 408.37 1261.44 412.86C1251.4 420.34 1240.6 426.89 1229.71 433.13C1208.56 445.26 1187.09 456.83 1165.86 468.81C1157.92 473.29 1150.29 478.32 1142.44 482.97C1141.27 483.66 1139.56 484.03 1138.24 483.78C1133.55 482.88 1128.93 481.65 1123.17 480.28C1133.16 473.2 1144.24 470.21 1154.32 465.27C1154.16 464.86 1154.01 464.45 1153.85 464.04V464.06ZM1131.75 431.54C1148.99 425.39 1166.23 419.24 1183.47 413.09C1183.33 412.7 1183.2 412.31 1183.06 411.92C1164.85 415.33 1148.27 423.37 1131.75 431.54ZM1102.36 407.53L1102.8 407.67L1102.35 407.8V407.52L1102.36 407.53Z" fill="#EDEAE5"/>
<path d="M1583.05 1049.78C1568.83 1069 1552.55 1085.93 1531.7 1098.22C1506.49 1113.09 1478.69 1114.31 1450.64 1114.33C1442.56 1114.33 1434.48 1113.49 1425.35 1112.97C1427.23 1108.5 1428.64 1104.85 1430.35 1101.35C1430.7 1100.64 1432.15 1100.13 1433.12 1100.1C1439.73 1099.89 1446.38 1100.16 1452.96 1099.63C1461.49 1098.94 1469.97 1097.64 1478.44 1095.61H1433.02C1436.6 1082.46 1440 1069.96 1443.25 1058.03C1457.84 1060.21 1472.48 1062.39 1487.11 1064.58C1487.19 1064.16 1487.27 1063.75 1487.35 1063.33C1481.05 1061.63 1474.71 1060.06 1468.45 1058.21C1461.13 1056.05 1453.86 1053.74 1446.63 1051.28C1445.59 1050.93 1444.25 1049.41 1444.23 1048.41C1444.05 1038.46 1444.12 1028.51 1444.12 1018.39C1485.88 1044.4 1531.48 1048.46 1578.71 1044.29C1578.91 1044.86 1579.11 1045.44 1579.31 1046.01L1548.85 1063.32L1549.02 1064.09C1552.51 1062.7 1556.06 1061.43 1559.49 1059.9C1563.42 1058.15 1567.24 1056.15 1571.12 1054.28C1574.84 1052.49 1578.57 1050.73 1582.29 1048.96C1582.54 1049.23 1582.8 1049.5 1583.05 1049.78ZM1499.32 1079.67C1499.31 1080.06 1499.29 1080.44 1499.28 1080.83C1506.68 1079.83 1514.08 1078.83 1521.48 1077.83L1521.13 1075.62C1513.86 1076.97 1506.59 1078.32 1499.32 1079.67ZM1481.69 1094.76H1481.28L1481.32 1094.59L1481.68 1094.76H1481.69Z" fill="#EDEAE5"/>
<path d="M1603.81 892.04C1595.4 887.82 1588.37 884.3 1581.34 880.78L1580.85 881.83C1587.38 885.81 1593.94 889.73 1600.39 893.82C1601.52 894.54 1603.13 896.45 1602.86 897.02C1602.25 898.3 1600.71 899.7 1599.35 899.95C1596.29 900.51 1593.09 900.68 1589.97 900.53C1575.18 899.79 1560.4 898.69 1545.6 898.09C1523.99 897.21 1503.25 901.34 1483.37 909.81C1482.52 910.17 1481.59 910.34 1479.71 910.89C1484.41 887.8 1489.49 865.35 1483.61 842.39C1493.67 841.66 1517.57 848.86 1530.52 855.38C1529.15 854.1 1527.98 852.41 1526.37 851.61C1517.34 847.13 1508.34 842.52 1499.02 838.71C1495.01 837.07 1490.23 837.36 1485.85 836.53C1484.42 836.26 1482.4 835.57 1481.89 834.49C1478.09 826.47 1474.61 818.29 1470.98 810.07C1478.34 811.96 1486.54 814.1 1494.77 816.16C1530.4 825.11 1558.56 847.04 1586.63 869.08C1594.01 874.87 1598.97 882.57 1603.8 892.04H1603.81ZM1515.24 878.91C1515.13 879.66 1515.03 880.41 1514.92 881.17C1520.91 882.17 1526.89 883.17 1532.88 884.17L1533.18 882.34C1527.2 881.2 1521.22 880.05 1515.25 878.91H1515.24Z" fill="#EDEAE5"/>
<path d="M688.678 1231.32C688.818 1233.25 689.268 1234.6 688.958 1235.73C683.628 1255 677.249 1273.85 664.539 1289.74C660.929 1294.25 656.749 1298.33 652.529 1302.28C651.559 1303.19 648.869 1303.54 647.779 1302.86C637.849 1296.64 629.959 1288.27 622.069 1277.87C620.849 1280.58 618.928 1282.99 618.768 1285.53C617.878 1299.13 617.418 1312.77 616.828 1326.39C616.758 1328.11 616.819 1329.84 616.819 1331.56L615.208 1332.52C609.808 1327.61 604.148 1322.96 599.049 1317.75C586.658 1305.07 578.389 1289.93 573.209 1273.01C570.489 1264.12 569.638 1263.89 562.508 1269.61C555.688 1275.09 548.948 1280.67 541.028 1287.16C536.608 1279.66 531.528 1272.67 528.178 1264.92C524.078 1255.43 520.789 1245.47 518.439 1235.41C517.409 1230.99 519.548 1225.83 520.398 1220.07C539.108 1225.34 556.628 1230.27 573.918 1235.14C571.568 1244.17 569.358 1252.66 567.148 1261.15C567.868 1261.36 568.579 1261.56 569.299 1261.77C569.989 1259.13 570.709 1256.5 571.349 1253.85C572.099 1250.78 572.558 1247.62 573.558 1244.64C574.478 1241.92 575.969 1239.38 577.719 1235.66C589.749 1241.12 601.659 1245.22 612.159 1251.62C624.719 1259.27 636.459 1258.24 648.559 1252.2C660.549 1246.21 672.279 1239.68 684.139 1233.41C685.409 1232.74 686.749 1232.21 688.669 1231.33L688.678 1231.32Z" fill="#EDEAE5"/>
<path d="M470.109 1220.98C465.809 1231.97 461.509 1242.97 456.979 1254.54C442.089 1239.7 435.109 1220.15 426.249 1201.77C425.549 1201.99 424.859 1202.22 424.159 1202.44C424.799 1206.12 424.799 1210.06 426.199 1213.42C429.769 1221.96 434.079 1230.18 437.829 1238.65C438.749 1240.74 439.649 1243.76 438.819 1245.55C433.769 1256.36 431.109 1267.75 429.439 1279.45C429.209 1281.07 428.779 1282.67 428.419 1284.38C408.759 1268.79 388.779 1218.8 395.369 1190C415.419 1194.33 435.569 1198.24 455.479 1203.1C476.909 1208.32 498.129 1214.43 518.909 1220.01C517.739 1224.84 517.229 1229.66 515.369 1233.9C513.559 1238.04 510.599 1241.76 507.749 1245.35C502.899 1251.45 497.799 1257.36 492.669 1263.23C490.319 1265.93 488.249 1265.64 486.679 1262.19C481.059 1249.82 475.399 1237.49 473.619 1223.8C473.479 1222.73 472.449 1221.77 471.829 1220.76C471.259 1220.83 470.679 1220.9 470.109 1220.97V1220.98Z" fill="#EDEAE5"/>
<path d="M894.559 1196.35C888.639 1189.63 882.099 1183.6 877.339 1176.39C872.939 1169.73 869.919 1162 867.239 1154.4C864.849 1147.64 865.499 1147.22 872.179 1145.48C889.809 1140.88 907.759 1138.75 925.949 1138.45C931.889 1138.35 937.839 1138.43 944.659 1138.43C941.609 1143.45 938.599 1147.38 936.699 1151.78C933.499 1159.21 931.099 1166.98 928.149 1174.53C927.409 1176.43 926.219 1178.66 924.579 1179.62C914.879 1185.27 904.989 1190.59 894.559 1196.35Z" fill="#EDEAE5"/>
<path d="M841.908 1213.44C836.608 1214.2 831.548 1215.04 826.448 1215.56C825.458 1215.66 823.908 1214.82 823.348 1213.95C814.298 1199.71 802.348 1188.53 787.828 1180.03C787.438 1179.8 787.188 1179.31 786.258 1178.21C810.578 1167.83 833.948 1156.1 860.938 1149.16C854.258 1171.25 843.908 1190.93 841.898 1213.44H841.908Z" fill="#EDEAE5"/>
<path d="M707 1219.69C726.06 1209.12 744.36 1198.97 763.23 1188.51C766.46 1195.59 768.48 1202.32 767.57 1209.19C766.66 1216.03 764.27 1222.69 762.42 1229.39C762.15 1230.37 761.42 1231.54 760.57 1231.99C748.77 1238.31 736.92 1244.53 725.06 1250.75C724.35 1251.12 723.57 1251.33 722.44 1251.77C719.42 1240.42 716.98 1228.95 707 1219.7V1219.69Z" fill="#EDEAE5"/>
<path d="M848.418 1212.18C850.748 1195.19 857.388 1179.59 863.768 1163.53C870.318 1177.67 877.918 1190.28 892.478 1197.32C880.098 1209.06 865.988 1214.71 848.418 1212.18Z" fill="#EDEAE5"/>
<path d="M780.9 1183.73C796.79 1191.12 805.55 1204.92 817.56 1216.43C801.03 1220.36 785.42 1224.08 769.75 1227.81C773.36 1213.54 777 1199.14 780.9 1183.73Z" fill="#EDEAE5"/>
<path d="M674.027 1288.9C678.237 1280.45 682.807 1271.69 686.977 1262.76C691.657 1252.75 694.357 1242.24 694.277 1231.04C694.267 1229.23 696.137 1227.16 697.657 1225.77C698.027 1225.43 700.787 1226.93 701.797 1228.13C708.057 1235.59 714.867 1242.83 715.447 1253.32C715.527 1254.72 714.947 1256.74 713.937 1257.54C700.617 1268.16 687.177 1278.62 674.027 1288.9Z" fill="#EDEAE5"/>
<path d="M1582.29 1048.97C1582.82 1048.8 1583.36 1048.63 1583.89 1048.46C1583.61 1048.9 1583.33 1049.35 1583.05 1049.79C1582.8 1049.52 1582.54 1049.25 1582.29 1048.97Z" fill="#B4B1AC"/>
<path d="M962.781 946.52C940.851 946.42 920.401 940.84 902.261 928.41C891.431 920.99 884.021 910.73 881.241 897.48C876.631 875.53 876.841 853.67 881.721 831.8C885.251 815.96 890.751 800.55 900.461 787.8C914.591 769.26 930.191 751.8 951.191 740.22C968.481 730.69 986.941 725.36 1006.41 723.11C1022.7 721.23 1039 721.04 1055.17 724.16C1088.34 730.55 1111.42 748.7 1121.93 781.58C1127.95 800.42 1130.17 819.55 1123.63 838.45C1115.09 863.15 1100.72 884.19 1080.22 900.76C1061.38 916 1040.74 928.26 1018.04 936.64C1000.32 943.18 981.841 946.64 962.791 946.52H962.781ZM1012.4 925.93C1011.41 926.15 1010.42 926.37 1009.44 926.59C1007.82 926.83 1006.2 927.2 1004.57 927.28C985.301 928.29 966.861 925.24 949.441 916.49C928.341 905.89 914.421 889.36 908.611 866.55C901.711 839.48 906.211 813.48 917.541 788.37C919.151 784.8 920.731 781.21 922.321 777.62C919.791 778.87 918.291 780.73 916.791 782.58C905.121 797.02 897.581 813.35 893.331 831.43C888.981 849.98 888.621 868.72 889.871 887.51C890.801 901.54 896.441 913.89 908.661 921.43C916.731 926.41 925.941 929.73 934.941 932.97C950.341 938.51 966.321 938.44 982.171 935.46C994.041 933.23 1005.7 929.95 1017.46 927.14C1024.48 924.45 1031.49 921.76 1038.51 919.07L1037.75 917.09C1034.94 918.09 1032.12 919.07 1029.32 920.09C1024.36 921.89 1019.4 923.72 1014.44 925.54C1013.76 925.67 1013.08 925.79 1012.4 925.92V925.93Z" fill="#0A0A0B"/>
<path d="M669.279 1019.84C686.479 1020.28 701.429 1023.87 713.189 1036.27C731.099 1055.16 723.639 1091.15 699.549 1099.14C693.709 1101.08 686.609 1101.01 680.449 1099.88C658.789 1095.91 637.169 1092.37 615.049 1092.56C596.109 1092.72 577.689 1096.15 559.339 1100.36C556.769 1100.95 554.089 1101.34 551.449 1101.34C547.309 1101.35 545.289 1097.83 547.109 1094.14C547.619 1093.1 548.149 1092 548.939 1091.17C556.409 1083.24 563.739 1075.17 571.479 1067.52C594.639 1044.6 621.689 1028.5 653.849 1021.78C659.199 1020.66 664.729 1020.39 669.259 1019.84H669.279ZM556.359 1093.12C562.029 1091.86 567.719 1090.69 573.349 1089.28C574.819 1088.91 576.489 1088.14 577.419 1087.02C579.889 1084.04 581.699 1080.49 584.319 1077.67C602.389 1058.25 624.069 1044.93 649.999 1038.55C664.709 1034.93 679.429 1032.05 694.749 1032.76C690.209 1031.21 685.679 1029.64 681.019 1028.98C656.569 1025.56 634.879 1034.5 613.789 1044.99C596.449 1053.61 581.619 1065.98 567.599 1079.19C563.249 1083.28 560.009 1088.54 556.259 1093.23L556.419 1093.28L556.339 1093.12H556.359Z" fill="#0A0A0B"/>
<path d="M1214.24 850.95C1240.94 850.88 1263.28 859.6 1273.5 881.64C1284.8 906.02 1281.18 933.5 1256.71 952.08C1241.08 963.95 1223.16 969.04 1204.11 971.38C1186.61 973.52 1169.05 975.37 1151.66 978.18C1135.04 980.86 1119.1 986.11 1104.21 994.19C1103.33 994.66 1102.45 995.44 1101.55 995.47C1100.05 995.51 1098.54 995.06 1097.03 994.82C1097.44 993.36 1097.39 991.16 1098.34 990.57C1105.34 986.22 1112.2 981.39 1119.74 978.22C1144.29 967.91 1170.54 965.67 1196.7 963C1215.99 961.03 1234.55 957.02 1250.83 945.13C1278.54 924.91 1273.8 888.2 1254.67 871.94C1242.71 861.77 1230.38 852.94 1214.23 850.96L1214.24 850.95Z" fill="#0A0A0B"/>
<path d="M916.811 620.55C921.821 618.78 926.781 616.82 931.861 615.28C939.321 613.03 947.151 611.76 954.341 608.87C972.151 601.71 990.821 597.91 1009.43 593.96C1022.42 591.2 1035.59 589.03 1048.79 587.59C1086.74 583.46 1116.1 599.73 1140.23 627.49C1143.21 630.92 1145.39 635.05 1147.09 639.57C1144.73 637.23 1142.34 634.91 1140 632.54C1116.23 608.4 1089.09 591.38 1053.59 594.9C1037.44 596.5 1021.41 599.97 1005.53 603.53C985.291 608.06 965.351 613.94 945.101 618.43C935.961 620.46 926.401 620.53 917.031 621.5C916.951 621.19 916.881 620.87 916.801 620.56L916.811 620.55Z" fill="#0A0A0B"/>
<path d="M1263.75 832.04C1255.31 828.77 1246.91 825.39 1238.42 822.27C1234.22 820.73 1229.75 819.89 1225.58 818.28C1223.81 817.6 1221.83 815.98 1221.24 814.32C1220.93 813.45 1223.15 810.97 1224.7 810.28C1233.14 806.51 1241.72 803.08 1251.29 799.1C1243.14 794.6 1234.87 794.15 1226.9 794.01C1218.9 793.87 1210.87 795.41 1202.25 795.21C1203.3 794.26 1204.21 792.76 1205.43 792.45C1211.81 790.81 1218.22 788.66 1224.72 788.22C1234.7 787.55 1244.74 788.58 1254.02 792.78C1256.26 793.79 1259.08 796.34 1259.24 798.37C1259.4 800.33 1256.91 803.34 1254.82 804.49C1250.05 807.11 1244.81 808.86 1239.77 810.98C1238.16 811.66 1236.59 812.41 1234.32 813.43C1244.55 817.52 1253.93 821.17 1263.23 825.04C1266.96 826.59 1270.45 828.67 1270.57 833.49C1270.69 838.47 1266.96 840.71 1263.29 841.92C1256.56 844.14 1249.62 845.96 1242.63 847.03C1236.21 848.02 1229.61 847.8 1223.35 849.02C1236.86 844.27 1250.36 839.52 1263.87 834.77C1263.83 833.86 1263.79 832.95 1263.75 832.04Z" fill="#0A0A0B"/>
<path d="M796.231 539.35C804.071 539.21 811.091 541.77 817.931 545.71C828.891 552.02 832.301 562.72 835.211 573.86C838.791 587.57 836.551 601.28 835.171 614.98C835.041 616.25 834.331 617.47 834.091 618.14C832.831 606.15 832.111 593.57 829.991 581.24C828.491 572.52 825.731 563.87 822.371 555.67C818.741 546.82 810.291 543.92 801.551 542.12C799.621 541.72 797.721 541.19 795.801 540.72L796.221 539.35H796.231Z" fill="#0A0A0B"/>
<path d="M885.461 595.13C916.931 563.98 952.621 538.89 992.051 519.1C954.031 540.95 918.201 565.89 885.461 595.13Z" fill="#0A0A0B"/>
<path d="M929.83 510.97C909.75 522.55 889.67 534.12 869.59 545.7C888.16 531.55 907.86 519.32 929.83 510.97Z" fill="#0A0A0B"/>
<path d="M849.61 647.33C834.5 660.59 831.4 679.92 823.97 697.53C820.47 690.06 839.15 653.11 849.61 647.33Z" fill="#0A0A0B"/>
<path d="M546.109 953.86C553.389 943.99 587.869 917.77 595.159 915.7C579.209 928.11 562.659 940.99 546.109 953.86Z" fill="#0A0A0B"/>
<path d="M685.649 888.16C678.699 886.24 671.759 884.29 664.809 882.41C662.269 881.72 659.689 881.19 658.219 880.84C665.129 880.05 672.769 881.66 679.959 885.31C681.129 885.9 681.809 887.42 682.949 888.15C683.579 888.56 684.679 888.23 685.569 888.24L685.659 888.15L685.649 888.16Z" fill="#0A0A0B"/>
<path d="M772.819 655.21C769.959 649.18 767.099 643.15 764.129 636.9C769.619 641.88 771.619 648.42 772.819 655.21Z" fill="#0A0A0B"/>
<path d="M685.559 888.25L685.579 888.04C685.579 888.04 685.639 888.18 685.649 888.17L685.569 888.25H685.559Z" fill="#0A0A0B"/>
<path d="M470.541 1287.53C480.191 1285.35 519.331 1297.74 522.371 1303.7C511.151 1305.41 500.681 1302.16 490.111 1299.9C497.791 1300.4 505.481 1300.9 513.161 1301.4C513.271 1300.99 513.381 1300.58 513.481 1300.17C506.331 1297.79 499.241 1295.22 492.011 1293.09C484.921 1291 477.701 1289.36 470.531 1287.53H470.541Z" fill="#0A0A0B"/>
<path d="M1458.02 525.79C1472.3 517.3 1487.45 510.64 1503.31 505.45L1458.8 527.18C1458.54 526.72 1458.28 526.26 1458.02 525.8V525.79Z" fill="#0A0A0B"/>
<path d="M1131.75 431.54C1148.28 423.37 1164.85 415.33 1183.06 411.92C1183.2 412.31 1183.33 412.7 1183.47 413.09C1166.23 419.24 1148.99 425.39 1131.75 431.54Z" fill="#0A0A0B"/>
<path d="M1102.36 407.53V407.81L1102.8 407.67L1102.36 407.53Z" fill="#0A0A0B"/>
<path d="M1499.32 1079.68C1506.59 1078.33 1513.86 1076.98 1521.13 1075.63L1521.48 1077.84C1514.08 1078.84 1506.68 1079.84 1499.28 1080.84C1499.29 1080.45 1499.31 1080.07 1499.32 1079.68Z" fill="#0A0A0B"/>
<path d="M1481.69 1094.77L1481.33 1094.6L1481.28 1094.77H1481.69Z" fill="#0A0A0B"/>
<path d="M1515.23 878.91C1521.21 880.05 1527.19 881.2 1533.16 882.34L1532.86 884.17C1526.87 883.17 1520.89 882.17 1514.9 881.17C1515.01 880.42 1515.11 879.67 1515.22 878.91H1515.23Z" fill="#0A0A0B"/>
<path d="M636.789 817.05C637.619 806.23 637.379 795.17 639.699 784.67C640.979 778.91 645.979 773.52 650.379 769.01C656.539 762.69 663.579 757.18 670.489 751.64C675.969 747.24 681.609 747.16 687.139 752.05C689.209 753.88 691.789 755.14 694.539 756.93C672.429 774.2 656.279 796.71 636.789 817.05Z" fill="#B4B1AC"/>
<path d="M1017.46 927.16C1005.7 929.97 994.038 933.26 982.168 935.48C966.318 938.46 950.338 938.52 934.938 932.99C925.938 929.75 916.728 926.43 908.658 921.45C896.438 913.91 890.808 901.56 889.868 887.53C888.618 868.74 888.968 850 893.328 831.45C897.568 813.37 905.118 797.04 916.788 782.6C918.288 780.74 919.788 778.89 922.318 777.64C920.728 781.22 919.148 784.81 917.538 788.39C906.208 813.5 901.718 839.5 908.608 866.57C914.418 889.38 928.338 905.91 949.438 916.51C966.858 925.26 985.298 928.31 1004.57 927.3C1006.2 927.21 1007.82 926.85 1009.44 926.61C1010.43 926.39 1011.42 926.17 1012.4 925.95C1013.08 925.82 1013.76 925.7 1014.44 925.57C1015.45 926.11 1016.45 926.64 1017.46 927.18V927.16Z" fill="#B4B1AC"/>
<path d="M1017.46 927.16C1016.45 926.62 1015.45 926.09 1014.44 925.55C1019.4 923.73 1024.36 921.91 1029.32 920.1C1032.12 919.08 1034.94 918.1 1037.75 917.1L1038.51 919.08C1031.49 921.77 1024.48 924.46 1017.46 927.15V927.16Z" fill="#0A0A0B"/>
<path d="M1012.4 925.93C1011.41 926.15 1010.42 926.37 1009.44 926.59C1010.43 926.37 1011.42 926.15 1012.4 925.93Z" fill="#0A0A0B"/>
<path d="M513.984 1245.07C517.344 1253.88 520.774 1262.87 524.424 1272.44C515.384 1269.92 506.704 1267.51 498.184 1265.13C503.494 1258.39 508.674 1251.81 513.994 1245.06L513.984 1245.07Z" fill="#EDEAE5"/>
<path d="M469.053 1230.58C472.913 1242.07 476.253 1252.01 479.753 1262.39C473.363 1260.97 467.283 1259.63 460.453 1258.11C463.243 1249.17 465.943 1240.53 469.053 1230.58Z" fill="#EDEAE5"/>
<path d="M624.282 1288.74C629.872 1294.25 635.202 1299.49 641.372 1305.57C634.822 1304.99 629.172 1304.48 622.672 1303.91C623.222 1298.75 623.752 1293.76 624.282 1288.74Z" fill="#EDEAE5"/>
<path d="M555.473 1282.59C559.433 1279.48 563.163 1276.55 567.403 1273.22C569.173 1278.44 570.793 1283.23 572.673 1288.79C566.723 1286.65 561.333 1284.7 555.473 1282.59Z" fill="#EDEAE5"/>
<path d="M450.153 1256.25H439.973C441.013 1253.05 441.943 1250.19 442.963 1247.03C445.333 1250.08 447.533 1252.89 450.153 1256.25Z" fill="#EDEAE5"/>
<path d="M389.682 1050.03C395.732 1042.85 398.912 1034.79 399.802 1025.93C400.672 1017.22 401.112 1008.47 401.802 998.77C404.602 1007.3 408.042 1014.99 409.522 1023.04C411.092 1031.6 407.572 1039.76 403.112 1047C397.112 1056.75 398.632 1055.57 389.672 1050.04L389.682 1050.03Z" fill="#B4B1AC"/>
<path d="M556.273 1093.27C560.023 1088.55 563.273 1083.29 567.613 1079.19C581.633 1065.99 596.463 1053.61 613.803 1044.99C634.893 1034.5 656.583 1025.57 681.033 1028.98C685.693 1029.63 690.233 1031.2 694.763 1032.76C679.443 1032.05 664.723 1034.94 650.013 1038.55C624.073 1044.93 602.393 1058.25 584.333 1077.67C581.713 1080.49 579.903 1084.05 577.433 1087.02C576.503 1088.14 574.833 1088.91 573.363 1089.28C567.733 1090.68 562.043 1091.86 556.373 1093.12L556.283 1093.26L556.273 1093.27Z" fill="#B4B1AC"/>
<path d="M556.361 1093.12L556.441 1093.28C556.441 1093.28 556.281 1093.23 556.281 1093.24C556.281 1093.26 556.371 1093.11 556.371 1093.11L556.361 1093.12Z" fill="#B4B1AC"/>
</g>
<defs>
<clipPath id="clip0_2105_65">
<rect width="1281.68" height="1014.37" fill="white" transform="translate(356 356)"/>
</clipPath>
</defs>
</svg>
